<svg xmlns="http://www.w3.org/2000/svg" width="25.9" height="19.711" viewBox="0 0 25.9 19.711">
  <g id="envelope" opacity="0.8">
    <g id="Group_15" data-name="Group 15">
      <path id="Path_39" data-name="Path 39" d="M22.738,57.75H3.167A3.17,3.17,0,0,0,0,60.917V74.293a3.17,3.17,0,0,0,3.167,3.167H22.733A3.17,3.17,0,0,0,25.9,74.293V60.923A3.167,3.167,0,0,0,22.738,57.75Zm1.72,16.543a1.722,1.722,0,0,1-1.72,1.72H3.167a1.722,1.722,0,0,1-1.72-1.72V60.923a1.722,1.722,0,0,1,1.72-1.72H22.733a1.722,1.722,0,0,1,1.72,1.72V74.293Z" transform="translate(0 -57.75)" fill="#546d78"/>
      <path id="Path_40" data-name="Path 40" d="M69.1,115.85l6.334-5.681a.725.725,0,0,0-.97-1.077l-8.735,7.84-1.7-1.522c-.005-.005-.011-.011-.011-.016a1.071,1.071,0,0,0-.118-.1l-6.935-6.206A.725.725,0,1,0,56,110.17l6.409,5.729-6.383,5.975a.726.726,0,0,0-.032,1.024.74.74,0,0,0,.531.23.725.725,0,0,0,.493-.193l6.479-6.061,1.758,1.57a.722.722,0,0,0,.965-.005l1.806-1.618,6.442,6.12a.725.725,0,0,0,1.024-.027.726.726,0,0,0-.027-1.024Z" transform="translate(-52.765 -106.161)" fill="#546d78"/>
    </g>
  </g>
</svg>
