<svg xmlns="http://www.w3.org/2000/svg" width="7.874" height="15.451" viewBox="0 0 7.874 15.451">
  <g id="iconfinder_FB_1217112" transform="translate(-249.909 198.522)" opacity="0.8">
    <path id="Path_37" data-name="Path 37" d="M144.191,20.439c-.077,0-.126.009-.175.009-1.049,0-2.094,0-3.143,0-.147,0-.187-.04-.187-.187q0-3.661,0-7.326v-.212H139V10.121h.166c.46,0,.92,0,1.38,0,.117,0,.147-.034.147-.147-.006-.684-.006-1.371,0-2.054a3.017,3.017,0,0,1,.3-1.377,2.618,2.618,0,0,1,1.447-1.251,4.559,4.559,0,0,1,1.6-.285C144.933,5,145.823,5,146.712,5c.083,0,.15,0,.15.113q0,1.265,0,2.53a.249.249,0,0,1-.015.058h-.169c-.552,0-1.1,0-1.656,0a.8.8,0,0,0-.739.408.59.59,0,0,0-.08.288c-.009.521,0,1.043-.006,1.564,0,.123.037.156.156.156.767-.006,1.533,0,2.3,0h.224c-.107.877-.212,1.736-.319,2.6h-2.364Z" transform="translate(110.909 -203.522)" fill="#546d78"/>
  </g>
</svg>
