<svg xmlns="http://www.w3.org/2000/svg" width="20.556" height="20.562" viewBox="0 0 20.556 20.562">
  <g id="old-handphone" transform="translate(0)" opacity="0.8">
    <path id="Path_38" data-name="Path 38" d="M6.455,6.807,1.707,2.057,3.545.216A.729.729,0,0,1,4.572.207l3.7,3.7a.732.732,0,0,1,0,1.033l-.81.809L6.7,6.506A2.077,2.077,0,0,0,6.455,6.807Zm3.906,7.738c-.777-.669-1.523-1.379-2.247-2.1s-1.43-1.471-2.1-2.252a2.339,2.339,0,0,1-.369-2.323L.771,2.994c-1.134,1.166-.989,4.057.253,6.6a18.289,18.289,0,0,0,1.941,3.034,27.19,27.19,0,0,0,2.322,2.651,25.9,25.9,0,0,0,2.645,2.331,18.3,18.3,0,0,0,3.029,1.937c2.544,1.241,5.437,1.378,6.6.242l-4.875-4.875A2.349,2.349,0,0,1,10.361,14.545Zm9.985,1.439-3.7-3.7a.737.737,0,0,0-1.033,0h0L14.8,13.1l-.749.753a2.274,2.274,0,0,1-.3.25L18.5,18.85q.921-.923,1.842-1.84A.724.724,0,0,0,20.346,15.984Z" transform="translate(0 0)" fill="#546d78"/>
  </g>
</svg>
