<svg xmlns="http://www.w3.org/2000/svg" width="15.472" height="15.472" viewBox="0 0 15.472 15.472">
  <g id="iconfinder_38-instagram_1161953" transform="translate(-3.4 -4.8)" opacity="0.8">
    <path id="Path_34" data-name="Path 34" d="M19.393,16.7a3.993,3.993,0,1,0,3.993,3.993A4,4,0,0,0,19.393,16.7Zm0,6.551a2.558,2.558,0,1,1,2.558-2.558A2.569,2.569,0,0,1,19.393,23.251Z" transform="translate(-8.257 -8.188)" fill="#546d78"/>
    <circle id="Ellipse_8" data-name="Ellipse 8" cx="0.905" cy="0.905" r="0.905" transform="translate(14.38 7.514)" fill="#546d78"/>
    <path id="Path_35" data-name="Path 35" d="M17.625,6.079A4.443,4.443,0,0,0,14.349,4.8H7.923A4.273,4.273,0,0,0,3.4,9.323v6.395a4.488,4.488,0,0,0,1.31,3.338,4.552,4.552,0,0,0,3.244,1.217h6.364a4.606,4.606,0,0,0,3.275-1.217,4.466,4.466,0,0,0,1.279-3.307V9.323A4.472,4.472,0,0,0,17.625,6.079Zm-.125,9.67a3.048,3.048,0,0,1-.9,2.277,3.224,3.224,0,0,1-2.277.811H7.954a3.224,3.224,0,0,1-2.277-.811,3.136,3.136,0,0,1-.842-2.308V9.323a3.11,3.11,0,0,1,.842-2.277,3.172,3.172,0,0,1,2.277-.811H14.38a3.11,3.11,0,0,1,2.277.842A3.219,3.219,0,0,1,17.5,9.323v6.426Z" transform="translate(0 0)" fill="#546d78"/>
  </g>
</svg>
