<svg xmlns="http://www.w3.org/2000/svg" width="12.936" height="18.82" viewBox="0 0 12.936 18.82">
  <g id="lightbulb" transform="translate(-0.076 0)">
    <path id="Path_164" data-name="Path 164" d="M10.071,14.116H3.016v-.588A3.586,3.586,0,0,0,1.94,11.009a6.467,6.467,0,1,1,9.172.037,3.484,3.484,0,0,0-1.04,2.482Zm0,0" transform="translate(0 0)" fill="#62808C"/>
    <path id="Path_165" data-name="Path 165" d="M80.658,416.156h5.879a.588.588,0,1,1,0,1.176H80.658a.588.588,0,1,1,0-1.176Zm0,0" transform="translate(-77.054 -400.864)" fill="#62808c"/>
    <path id="Path_166" data-name="Path 166" d="M112.658,480.156h3.528a.588.588,0,0,1,0,1.176h-3.528a.588.588,0,0,1,0-1.176Zm0,0" transform="translate(-107.878 -462.513)" fill="#62808c"/>
    <g id="Group_254" data-name="Group 254" transform="translate(2.428 5.885)">
      <path id="Path_167" data-name="Path 167" d="M64.07,160.156h1.176v1.176H64.07Zm0,0" transform="translate(-64.07 -160.156)" fill="#fff"/>
      <path id="Path_168" data-name="Path 168" d="M128.07,161.332h1.176v7.055h1.176v-7.055H131.6v-1.176H128.07Zm0,0" transform="translate(-125.719 -160.156)" fill="#fff"/>
      <path id="Path_169" data-name="Path 169" d="M256.07,160.156h1.176v1.176H256.07Zm0,0" transform="translate(-249.015 -160.156)" fill="#fff"/>
    </g>
  </g>
</svg>
