<svg xmlns="http://www.w3.org/2000/svg" width="17.385" height="14.128" viewBox="0 0 17.385 14.128">
  <path id="iconfinder_03-twitter_104501" d="M20.959,12a7.1,7.1,0,0,1-2.049.561,3.573,3.573,0,0,0,1.568-1.973,7.14,7.14,0,0,1-2.265.866,3.57,3.57,0,0,0-6.077,3.253,10.127,10.127,0,0,1-7.352-3.727,3.571,3.571,0,0,0,1.1,4.762,3.557,3.557,0,0,1-1.616-.446c0,.015,0,.03,0,.045a3.57,3.57,0,0,0,2.861,3.5,3.586,3.586,0,0,1-.94.125,3.534,3.534,0,0,1-.671-.064,3.571,3.571,0,0,0,3.332,2.477,7.2,7.2,0,0,1-5.281,1.477A10.144,10.144,0,0,0,19.19,14.306q0-.232-.01-.462A7.224,7.224,0,0,0,20.959,12Z" transform="translate(-3.574 -10.326)" fill="#546d78" opacity="0.8"/>
</svg>
