<svg xmlns="http://www.w3.org/2000/svg" xmlns:xlink="http://www.w3.org/1999/xlink" width="23.148" height="13.014" viewBox="0 0 23.148 13.014">
  <defs>
    <clipPath id="clip-path">
      <rect id="Rectangle_508" data-name="Rectangle 508" width="23.148" height="13.014" fill="#546d78"/>
    </clipPath>
  </defs>
  <g id="Mask_Group_32" data-name="Mask Group 32" clip-path="url(#clip-path)">
    <g id="profile" transform="translate(4.741)">
      <path id="Path_145" data-name="Path 145" d="M189.7,26.5a3.652,3.652,0,1,0-3.657-3.657A3.658,3.658,0,0,0,189.7,26.5Zm0-6.35a2.693,2.693,0,1,1-2.693,2.693A2.7,2.7,0,0,1,189.7,20.154Z" transform="translate(-182.889 -19.2)" fill="#546d78"/>
      <path id="Path_146" data-name="Path 146" d="M.482,493.016h12.7a.479.479,0,0,0,.482-.482,4.594,4.594,0,0,0-4.589-4.589H4.589A4.594,4.594,0,0,0,0,492.534.479.479,0,0,0,.482,493.016Zm4.106-4.106H9.076a3.621,3.621,0,0,1,3.59,3.141H1A3.631,3.631,0,0,1,4.589,488.91Z" transform="translate(0 -480.002)" fill="#546d78"/>
    </g>
  </g>
</svg>
