<svg id="Layer_1" data-name="Layer 1" xmlns="http://www.w3.org/2000/svg" xmlns:xlink="http://www.w3.org/1999/xlink" viewBox="0 0 28 28"><defs><style>.cls-1{filter:url(#Ellipse_11);}.cls-2{fill:#315d99;}.cls-3{fill:#fff;}</style><filter id="Ellipse_11" width="46" height="46" name="Ellipse_11"><feOffset dy="3"/><feGaussianBlur result="blur" stdDeviation="3"/><feFlood flood-opacity="0.16"/><feComposite operator="in" in="blur"/><feComposite in="SourceGraphic"/></filter></defs><title>Ellipse 1144</title><g class="cls-1"><circle id="Ellipse_11-2" data-name="Ellipse 11-2" class="cls-2" cx="14" cy="14" r="14"/></g><path id="Path_37" data-name="Path 37" class="cls-3" d="M24.36,31.35H20.77c-.16,0-.2,0-.2-.2V23H18.73V20.18h1.68c.12,0,.16,0,.16-.16q0-1.11,0-2.22a3.3,3.3,0,0,1,.32-1.49A2.81,2.81,0,0,1,22.46,15a4.87,4.87,0,0,1,1.74-.31h2.89c.09,0,.16,0,.16.12V17.5a.14.14,0,0,1,0,.06h-2a.87.87,0,0,0-.8.44.62.62,0,0,0-.09.32c0,.56,0,1.12,0,1.69,0,.13,0,.17.17.17h2.74c-.12.95-.23,1.88-.35,2.82H24.36Z" transform="translate(-9 -9)"/></svg>