<?xml version="1.0" standalone="no"?>
<!DOCTYPE svg PUBLIC "-//W3C//DTD SVG 1.1//EN" "http://www.w3.org/Graphics/SVG/1.1/DTD/svg11.dtd" >
<svg xmlns="http://www.w3.org/2000/svg" xmlns:xlink="http://www.w3.org/1999/xlink" version="1.1">
<metadata>
Created by FontForge 20170731 at Fri Jul 31 10:27:53 1931
 By Aleksey,,,
Copyright 1991, Atech Software, Carlsbad CA 
</metadata>
<defs>
<font id="Gancxadebebi" horiz-adv-x="547" >
  <font-face 
    font-family="Agancxad"
    font-weight="400"
    font-stretch="normal"
    units-per-em="1000"
    panose-1="0 0 0 0 0 0 0 0 0 0"
    ascent="800"
    descent="-200"
    x-height="368"
    cap-height="701"
    bbox="7 -308 1106 743"
    underline-thickness="50"
    underline-position="-155"
    unicode-range="U+0020-2219"
  />
<missing-glyph horiz-adv-x="500" 
d="M31 0v737h438v-737h-438zM438 31v675h-376v-675h376z" />
    <glyph glyph-name=".notdef" horiz-adv-x="500" 
d="M31 0v737h438v-737h-438zM438 31v675h-376v-675h376z" />
    <glyph glyph-name=".null" horiz-adv-x="0" 
 />
    <glyph glyph-name="nonmarkingreturn" horiz-adv-x="500" 
 />
    <glyph glyph-name="space" unicode=" " horiz-adv-x="500" 
 />
    <glyph glyph-name="exclam" unicode="!" horiz-adv-x="259" 
d="M97 63q14 14 33 14q18 0 31.5 -13.5t13.5 -31.5l-1 -7l-1 -7q-3 -12 -15 -21q-10 -10 -28 -10q-19 0 -32.5 13t-13.5 32q0 18 13 31zM157 703q8 -13 8 -33l-14 -495h-43l-13 495q0 22 8 33.5t27 11.5q18 0 27 -12z" />
    <glyph glyph-name="quotedbl" unicode="&#x22;" horiz-adv-x="436" 
d="M36 160q3 -31 12.5 -55.5t26.5 -38.5q14 -15 40 -26q12 -4 31.5 -8t28.5 -6v263l-56 37l-28 22l-29 25l-22 26q-11 15 -17.5 36.5t-6.5 47.5q0 27 10 51.5t30 44t48.5 32.5t70.5 19v41h29v-41q19 0 34 -4l12 -1l17 -4l28 -9l58 -22v-135h-18l-3 32l-9 30q-9 26 -24 41.5
t-37.5 25t-57.5 15.5v-228q24 -16 51.5 -36.5t41.5 -31.5q41 -32 54.5 -47t22.5 -41t9 -54q0 -27 -12 -59q-12 -26 -34.5 -50t-57.5 -39q-28 -10 -75 -16v-58h-29v57l-41 4l-37 7q-11 0 -16 2l-23 8l-42 15v128h20zM234 32l23 11q12 7 20 17l18 24l12 25l4 30q0 17 -5 28
q-3 15 -13 28t-32 31l-57 43v-243zM175 599q-14 0 -19 -2l-22 -8q-13 -6 -26 -19l-8 -11l-9 -16l-4 -13l-1 -19q0 -18 4.5 -32t15.5 -29q5 -8 27 -29l42 -31v209z" />
    <glyph glyph-name="numbersign" unicode="#" horiz-adv-x="1148" 
d="M88 231v512l88 -104l433 -512v62v512h54v-218v-511l-92 109l-428 512v-81v-512h-55v231zM781 43h301v-43h-301v43zM812 147q-36 39 -50 94l-5 27l-1 26l1 26l5 27q11 52 50 94t119 42q86 0 130.5 -56t44.5 -133q0 -74 -44.5 -131.5t-130.5 -57.5q-75 0 -119 42zM1021 193
q14 20 23 47q4 13 6 25t2 29q0 57 -30.5 101.5t-90.5 44.5q-56 0 -88 -40.5t-32 -92.5l1 -6v-4l1 -27l5 -25q9 -36 36 -68q27 -29 77 -29q60 0 90 45z" />
    <glyph glyph-name="dollar" unicode="$" 
 />
    <glyph glyph-name="percent" unicode="%" horiz-adv-x="827" 
d="M297 210l285 512h49l-129 -232l-285 -511h-49zM511 276q23 22 50 34t57 12h6q64 0 112.5 -46.5t48.5 -114.5q0 -64 -47 -112.5t-114 -48.5t-114.5 47t-47.5 114q0 72 49 115zM544 77q34 -34 80 -34q45 0 78.5 35t33.5 83q0 46 -33 82t-79 36q-45 0 -79 -34t-34 -84
q0 -48 33 -84zM89 668q47 47 114 47q64 0 112.5 -46.5t48.5 -114.5q0 -67 -47 -114.5t-114 -47.5q-66 0 -113.5 48.5t-47.5 113.5q0 68 47 114zM124 470q33 -35 79 -35t79 35.5t33 83.5q0 46 -33 82t-79 36q-45 0 -78.5 -33.5t-33.5 -84.5q0 -48 33 -84z" />
    <glyph glyph-name="ampersand" unicode="&#x26;" horiz-adv-x="436" 
d="M36 160q3 -31 12.5 -55.5t26.5 -38.5q14 -15 40 -26q12 -4 31.5 -8t28.5 -6v263l-56 37l-28 22l-29 25l-22 26q-11 15 -17.5 36.5t-6.5 47.5q0 27 10 51.5t30 44t48.5 32.5t70.5 19v41h29v-41q19 0 34 -4l12 -1l17 -4l28 -9l58 -22v-135h-18l-3 32l-9 30q-9 26 -24 41.5
t-37.5 25t-57.5 15.5v-228q24 -16 51.5 -36.5t41.5 -31.5q41 -32 54.5 -47t22.5 -41t9 -54q0 -27 -12 -59q-12 -26 -34.5 -50t-57.5 -39q-28 -10 -75 -16v-58h-29v57l-41 4l-37 7q-11 0 -16 2l-23 8l-42 15v128h20zM234 32l23 11q12 7 20 17l18 24l12 25l4 30q0 17 -5 28
q-3 15 -13 28t-32 31l-57 43v-243zM175 599q-14 0 -19 -2l-22 -8q-13 -6 -26 -19l-8 -11l-9 -16l-4 -13l-1 -19q0 -18 4.5 -32t15.5 -29q5 -8 27 -29l42 -31v209z" />
    <glyph glyph-name="quotesingle" unicode="'" horiz-adv-x="245" 
d="M127 561l3 14l-4 17l-3 14l-1 17l8 5q4 3 5 5.5t2 3.5l-30 -9l19 8q-18 0 -31.5 10t-13.5 27q0 18 12 32.5t34 14.5t37 -14t15 -56v-12q0 -7 -2 -17q0 -8 -5.5 -26t-13.5 -33q-3 -8 -6 -14.5t-8 -13.5q-6 -12 -23 -32l-30 -33l-17 16q38 39 53 76z" />
    <glyph glyph-name="parenleft" unicode="(" horiz-adv-x="357" 
d="M150 120q6 -38 18 -89q7 -34 24 -77l15 -39l8 -20q1 -1 9 -16l4 -8l4 -8q36 -69 65 -101t32 -50l-1 -5q0 -6 -3.5 -8.5t-7.5 -4t-7 -1.5q-16 0 -41 20t-50 56q-39 56 -80 158q-17 46 -30 94q-6 27 -11 50q-1 8 -9 54l-4 39l-1 39l1 40l4 40q6 53 18 101.5t32 98.5
q39 98 80 156q14 21 23 31t24 23q25 22 44 22q9 0 13 -4l5 -10l1 -3q0 -17 -30.5 -50.5t-66.5 -102.5l-4 -8l-4 -8l-31 -73l-25 -79l-17 -87q-3 -23 -5 -45t-2 -42q0 -36 6 -83z" />
    <glyph glyph-name="parenright" unicode=")" horiz-adv-x="327" 
d="M209 288q-6 42 -18 91q-7 34 -24 77q-14 40 -31 73l-4 8l-4 8q-37 70 -67 102.5t-30 48.5l1 5q0 6 4 9l14 5q18 0 42 -21q24 -18 49 -55q41 -59 79 -155.5t51 -200.5l3 -40l2 -40v-14v-12l-2 -13l-3 -39q-6 -52 -18 -99.5t-32 -97.5q-37 -99 -80 -159q-23 -31 -48 -55
q-24 -21 -43 -21q-9 0 -13 4l-5 10l-1 3q0 15 29 50q28 31 68 103l4 8l4 8l12 27l20 48l25 81q3 11 8 36.5t10 59t5 72.5q0 44 -7 85z" />
    <glyph glyph-name="asterisk" unicode="*" 
d="M231 438q-3 -11 66 -50q29 -24 59 -48q-6 -7 -64.5 37t-65.5 40q-8 -5 18 -71l16 -66q-12 -3 -28 62t-28 68q-11 3 -45 -59q-22 -26 -43 -51q-9 8 28.5 59.5t33.5 58.5q-2 6 -23 6q-9 0 -54 -5q-18 -2 -31 -2q-21 0 -22 7q0 4 11.5 6t26.5 2q12 0 24.5 -0.5t25.5 -0.5
q22 0 31.5 1.5t11.5 6.5q3 11 -48 53t-43 52q27 -20 54 -39q48 -49 57 -45q9 5 15 72.5t17 67.5q7 0 7 -14t-10 -61t-10 -61q0 -12 4 -13q4 -5 63 36q33 23 53 23q3 0 11 -2q8 -17 -28 -32z" />
    <glyph glyph-name="plus" unicode="+" horiz-adv-x="564" 
d="M261 69v244h-243v40h243v242h39v-242h244v-40h-244v-244h-39z" />
    <glyph glyph-name="comma" unicode="," horiz-adv-x="245" 
d="M123 -89q12 32 12 53l-1 13l-1 10l-6 -1h-5q-18 0 -31.5 10t-13.5 27q0 18 12 32.5t34 14.5t37 -14t15 -56v-12q0 -8 -2 -16q0 -9 -5 -26t-14 -33l-14 -29q-6 -12 -23 -32q-12 -17 -30 -33l-17 16q38 39 53 76z" />
    <glyph glyph-name="hyphen" unicode="-" horiz-adv-x="400" 
d="M356 224v-59h-314v59h314z" />
    <glyph glyph-name="period" unicode="." horiz-adv-x="259" 
d="M85 40l3 8q2 6 4 9t10 10q12 10 28 10q18 0 31.5 -13.5t13.5 -31.5l-1 -6v-6q-3 -11 -14 -22t-30 -11q-16 0 -28 9q-8 9 -16 22l-2 7v7z" />
    <glyph glyph-name="slash" unicode="/" horiz-adv-x="567" 
d="M177 210l284 512h49l-129 -232l-284 -511h-49z" />
    <glyph glyph-name="zero" unicode="0" horiz-adv-x="546" 
d="M108 79q-9 18 -20 46t-18.5 54t-11.5 50t-4 53v11v10l-2 11v33q0 163 38 238t85 105q27 17 54 21l44 4q120 0 165 -96q26 -54 39.5 -105t13.5 -106l1 -31l1 -30l-1 -31l-1 -31q0 -56 -14 -104q-11 -46 -39 -101q-45 -93 -165 -93q-118 0 -165 92zM304 32q17 3 34 13
q38 21 69 88q15 33 23.5 87t8.5 127l-1 24v26q0 51 -11 95q-10 51 -29 94q-35 86 -125 86q-75 0 -108 -56.5t-48 -132.5l-5 -36l-3 -37l-2 -63l2 -61q0 -29 9 -84t44.5 -114t110.5 -59z" />
    <glyph glyph-name="one" unicode="1" horiz-adv-x="546" 
d="M273 92v512l-125 -126v63l160 160h20v-189v-512h-55v92z" />
    <glyph glyph-name="two" unicode="2" 
d="M485 0h-431l167 179q30 32 64 70q28 32 52 60q45 54 66 106l11 41l5 26l1 24q0 65 -33.5 112t-100.5 47q-77 0 -123.5 -57.5t-46.5 -132.5h-54q0 28 2 37l9 39q15 59 66.5 108t151.5 49q94 0 142 -59.5t48 -143.5v-12q0 -8 -2 -16v-16l-4 -11q-18 -77 -94 -166
q-65 -77 -219 -241h323v-43z" />
    <glyph glyph-name="three" unicode="3" 
d="M103 150q3 -23 17 -47.5t49 -50.5q35 -23 95 -23q77 0 124 44t47 113l-1 11v12q0 23 -10.5 45.5t-31.5 44.5q-17 20 -49 32t-78 12h-17h-16v43h5h5h4h6l24 1l26 3q42 6 79.5 37t37.5 99q0 60 -39.5 99.5t-110.5 39.5q-57 0 -87.5 -21.5t-47.5 -52.5l-13 -34l-5 -26h-49
l3 22l6 23q15 48 60 90t138 42q85 0 138 -44q56 -42 56 -129l-1 -27v-16q-3 -8 -4 -11q-8 -34 -32 -64q-20 -27 -75 -50l25 -10q16 -5 29 -14q29 -17 54.5 -54.5t25.5 -98.5q0 -90 -62.5 -146.5t-165.5 -56.5q-101 0 -150 50.5t-61 114.5q0 7 -2 11v12h51z" />
    <glyph glyph-name="four" unicode="4" 
d="M354 168h-329l15 21l348 512h21v-490h67v-43h-67v-168h-55v168zM354 567l-240 -356h240v356z" />
    <glyph glyph-name="five" unicode="5" horiz-adv-x="548" 
d="M216 658l-56 -229l42 14q23 6 53 6q108 0 166.5 -64t58.5 -161q0 -101 -63.5 -169t-165.5 -68l-20 1l-20 2q-44 6 -90.5 36.5t-81.5 97.5l44 23q14 -31 31 -51l36 -33q27 -21 56 -28l41 -5q92 0 135 60t43 137q0 75 -45 127t-127 52h-16t-26 -4q-24 -3 -53 -19l-26 -17
l-11 -10l-12 -14l-18 5l84 354h278v-43h-237z" />
    <glyph glyph-name="six" unicode="6" 
d="M393 695l-209 -300q19 10 41.5 15.5t48.5 5.5q97 0 156.5 -59.5t59.5 -147.5q0 -87 -56 -155q-26 -32 -66.5 -49.5t-93.5 -17.5l-38 3q-34 3 -71 20q-40 20 -74.5 64.5t-34.5 124.5q0 61 20 104q5 11 9 20t11 20l24 39l5 7l5 8l219 325zM388 74q47 45 47 128
q0 81 -47 125t-115 44q-67 0 -115 -44t-48 -125q0 -80 48.5 -126.5t114.5 -46.5q65 0 115 45z" />
    <glyph glyph-name="seven" unicode="7" 
d="M180 146l246 512h-363v43h441l-101 -207l-249 -512l-45 18z" />
    <glyph glyph-name="eight" unicode="8" horiz-adv-x="548" 
d="M114 46q-54 60 -54 148q0 74 41.5 119t94.5 61l3 1l-9 4l-8 4q-36 12 -67 49t-31 101q0 86 57.5 130.5t131.5 44.5q77 0 133 -44t56 -131q0 -63 -30 -99.5t-68 -50.5l-9 -4l-8 -2q63 -18 101.5 -68t38.5 -115q0 -87 -54.5 -147t-159.5 -60q-103 0 -159 59zM389 77
q20 23 31.5 52t11.5 64q0 65 -43 111t-116 46q-70 0 -114.5 -46t-44.5 -111t42.5 -114.5t116.5 -49.5q69 0 116 48zM369 429q41 36 41 98q0 61 -36.5 99.5t-100.5 38.5q-56 0 -96.5 -37.5t-40.5 -100.5q0 -60 41.5 -97t95.5 -37t96 36z" />
    <glyph glyph-name="nine" unicode="9" 
d="M152 10l209 299l-7 -4l-6 -3l-35 -11l-42 -3q-97 0 -156 60.5t-59 146.5q0 87 54 155.5t162 68.5q101 0 159.5 -61.5t58.5 -152.5q0 -58 -22 -105q-10 -23 -22.5 -45.5t-29.5 -47.5l-220 -325zM151 623q-41 -52 -41 -121q0 -78 48 -125q49 -44 115 -44q80 0 121 51.5
t41 117.5q0 70 -40.5 121.5t-121.5 51.5q-77 0 -122 -52z" />
    <glyph glyph-name="colon" unicode=":" horiz-adv-x="259" 
d="M85 40l3 8q2 6 4 9t10 10q12 10 28 10q18 0 31.5 -13.5t13.5 -31.5l-1 -6v-6q-3 -11 -14 -22t-30 -11q-16 0 -28 9q-8 9 -16 22l-2 7v7zM85 327l3 8q2 6 4 9t10 10q12 10 28 10q18 0 31.5 -13.5t13.5 -31.5l-1 -6v-6q-3 -12 -14 -23t-30 -11q-16 0 -28 9q-9 9 -16 23
l-2 7v7z" />
    <glyph glyph-name="semicolon" unicode=";" horiz-adv-x="245" 
d="M123 -89q12 32 12 53l-1 13l-1 10l-6 -1h-5q-18 0 -31.5 10t-13.5 27q0 18 12 32.5t34 14.5t37 -14t15 -56v-12q0 -8 -2 -16q0 -9 -5 -26t-14 -33l-14 -29q-6 -12 -23 -32q-12 -17 -30 -33l-17 16q38 39 53 76zM78 327l3 8q2 6 4 9t10 10q12 10 28 10q18 0 31.5 -13.5
t13.5 -31.5l-1 -6v-6q-3 -12 -14 -23t-30 -11q-16 0 -27.5 9t-15.5 23l-3 7v7z" />
    <glyph glyph-name="less" unicode="&#x3c;" horiz-adv-x="564" 
d="M219 353l325 219v-42l-280 -189l280 -206v-44l-325 238v24z" />
    <glyph glyph-name="equal" unicode="=" horiz-adv-x="564" 
d="M110 431h343v-40h-343v40zM110 272h343v-40h-343v40z" />
    <glyph glyph-name="greater" unicode="&#x3e;" horiz-adv-x="564" 
d="M403 323l-385 -232v42l329 197l-329 198v44l385 -225v-24z" />
    <glyph glyph-name="question" unicode="?" horiz-adv-x="433" 
d="M348 548l-1 -22q0 -19 -5 -28l-9 -18l-9 -11l-41 -80q-7 -6 -11 -13q-10 -18 -15 -23l-34 -46q-29 -45 -36 -112h-28q5 50 13 72l7 27l14 37l15 37l13 24l16 31l21 35q6 12 8 28t2 31v28q0 11 1 21.5t2 20.5q0 13 -4 22q-9 30 -35 53q-21 21 -53 25q-43 0 -66 -23
q-27 -23 -27 -60q28 -53 28 -72q0 -22 -14 -33q-6 -6 -30 -14q-19 0 -33.5 14t-14.5 40l-2 22q0 30 15 65.5t53 61.5t91 26q36 0 48 -3t44 -16q19 -7 30 -22q12 -21 20 -34l10 -20l9 -21l5 -22l2 -24zM178 125q24 0 43 -19t19 -43t-19 -43.5t-43 -19.5t-43.5 19t-19.5 44
q0 24 19 43t44 19z" />
    <glyph glyph-name="at" unicode="@" 
 />
    <glyph glyph-name="A" unicode="A" horiz-adv-x="436" 
d="M216 335q11 -12 29 -22l2 -2l3 -1l16 -9l16 -8q36 -21 67 -55t31 -96t-41.5 -110.5t-116.5 -48.5q-62 0 -114 36t-52 115q0 23 6 45t19 42l34 -9l-6 -23l-5 -25l-2 -14v-14q0 -53 35.5 -83.5t84.5 -30.5q54 0 78 28.5t32 64.5l1 12l1 12q0 42 -20 66q-18 25 -46 43l-17 9
l-16 8l-11 4l-10 6q-15 8 -32 25q-14 16 -14 48l1 13q0 11 2 15h35q0 -27 10 -41z" />
    <glyph glyph-name="B" unicode="B" horiz-adv-x="495" 
d="M294 516v-6v-7v-6l-1 -8v-6v-6v-6q0 -35 6 -56q7 -19 23 -36l10 -10l12 -10l10 -10l11 -9q32 -31 57.5 -71.5t25.5 -97.5l-1 -14l-1 -13q-6 -61 -52 -111t-144 -50q-93 0 -143.5 58.5t-50.5 136.5q0 50 21.5 85t46.5 57l20 16l19 13q12 8 25 19t22 20q17 19 27 37l8 35
l2 41q0 51 -33.5 78t-76.5 33q-2 -10 -3.5 -23t-1.5 -15q0 -11 -6 -34l-6 -42l-4 -14l-3 -11l-32 6l4 19l4 19l6 72l2 56v14l-2 22l-4 31h43q0 -15 7 -26l18 -19l9 -6l11 -6l31 -18l24 -16q21 -12 33.5 -27.5t19.5 -32.5l4 -18l2 -20zM226 351l-35 -26q-36 -30 -64 -64
q-25 -34 -25 -85v-14l2 -13q6 -47 42 -87t110 -40q70 0 103.5 38.5t41.5 87.5v12l1 12q0 60 -37 104.5t-85 86.5l-2 2l-2 2l-7 6l-6 6z" />
    <glyph glyph-name="C" unicode="C" horiz-adv-x="435" 
d="M70 89v512q0 57 30 98q31 37 84 37q50 0 79.5 -29t29.5 -73q0 -62 -43 -115t-137 -96v-110l19 19l20 14q23 14 44 18l33 4l30 -3q14 0 39.5 -12t53 -46t27.5 -100l-3 -38l-6 -39l-9 -34l-13 -35q-12 -33 -31 -61h-46q38 57 50 114t12 92v6q0 42 -25 79q-23 37 -83 37
l-29 -4q-15 -3 -41 -21l-22 -21l-20 -29v-253h-43v89zM135 470l24 15q33 24 60.5 60.5t27.5 88.5q0 24 -10.5 37.5t-26.5 20.5l-13 3l-11 1l-14 -1q-8 0 -16 -5q-14 -5 -28.5 -26t-14.5 -60v-145z" />
    <glyph glyph-name="D" unicode="D" horiz-adv-x="693" 
d="M386 -234q-59 24 -122 33l-36 3l-34 1l-31 -1q-21 0 -28 -2v43l32 5l26 1h10l12 -1q-63 55 -111 140t-48 183q0 85 35.5 129.5t78.5 59.5l22 6l22 2l28 -3q12 0 16 -2l14 -6q19 -6 43 -24q16 -11 38 -39l3 4l3 6q14 22 44.5 43t75.5 21q75 0 116.5 -59.5t41.5 -133.5
q0 -72 -39.5 -132t-118.5 -60q-76 0 -116 60t-40 133l3 38l7 37q-14 26 -34 42q-16 15 -43 26l-23 7l-21 2l-8 -1h-7q-33 -6 -65 -44q-30 -38 -30 -113q0 -105 42 -170.5t97 -111.5q29 -24 72 -47l52 -25l81 -39q42 -20 94 -66l9 -8l10 -10l-76 -1q-34 45 -97 74zM493 23
q6 0 14 4q30 9 57 45t27 103q0 65 -30.5 109t-81.5 44q-46 0 -78.5 -45.5t-32.5 -107.5q0 -63 24.5 -99.5t57.5 -48.5l15 -4l14 -1z" />
    <glyph glyph-name="E" unicode="E" horiz-adv-x="448" 
d="M72 172l-6 39v10l1 12q6 51 42 93t115 42q101 0 127.5 -61t26.5 -128v-6v-5v-290l-2 -35q0 -13 -2 -17q0 -7 -7 -27q-12 -39 -48.5 -72.5t-114.5 -33.5q-69 0 -122.5 38.5t-53.5 116.5q0 42 15 80t55 65l24 -27q-23 -19 -36 -47q-12 -30 -12 -62v-7l1 -8q0 -39 33.5 -74
t95.5 -35q61 0 87.5 26t35.5 58l6 33l2 28v290q0 100 -29.5 130t-78.5 30q-54 0 -78 -21t-33 -52l-3 -19l-1 -17q0 -18 2 -24l6 -25l9 -26l11 -23l-40 -17q-21 38 -28 68z" />
    <glyph glyph-name="F" unicode="F" horiz-adv-x="718" 
d="M366 298l7 8q18 23 52 42.5t81 19.5l10 -1h10q47 -6 90.5 -45.5t43.5 -111.5q0 -61 -28.5 -100t-73.5 -64q53 -15 78 -49.5t34 -77.5l2 -17l1 -18l-1 -18q0 -14 -2 -19q-9 -57 -54.5 -105.5t-162.5 -48.5q-100 0 -162 39.5t-62 100.5q0 15 2 21l6 22q3 13 10 24l18 20
l30 -22l-12 -19l-7 -24l-1 -5v-5q0 -47 47.5 -79.5t133.5 -32.5q90 0 127 41t43 94l1 7v8q0 66 -34 100q-33 30 -75 39l-14 1l-14 1h-5h-5v26q64 11 99 56.5t35 103.5q0 47 -29.5 82.5t-80.5 35.5q-48 0 -79.5 -24.5t-42.5 -56.5l7 -34l3 -37q0 -72 -39.5 -132.5
t-128.5 -60.5q-80 0 -124 60.5t-44 131.5q0 72 42.5 132.5t125.5 60.5q51 0 83.5 -22.5t53.5 -54.5zM310 64q36 42 36 111v6v7q0 25 -9 49.5t-26 46.5q-30 44 -87 44q-52 0 -87 -45t-35 -108q0 -67 27 -100.5t64 -47.5l16 -4l15 -1q47 0 86 42z" />
    <glyph glyph-name="G" unicode="G" horiz-adv-x="475" 
d="M53 178l-8 24l-3 31q0 56 33 90t75 43l13 1l12 1l23 -3q11 0 32 -12q19 -9 39.5 -39t20.5 -87l-1 -17l-1 -21v-4q0 -11 -2 -16v-13q0 -15 -2 -18l-1 -8v-4q0 -12 9 -29l21 -24l10 -10l9 -8l15 -14l14 -13q32 -30 51.5 -66.5t19.5 -86.5q0 -77 -48.5 -129.5t-141.5 -52.5
q-98 0 -148.5 58t-50.5 128q0 59 27 97q24 28 61 59l8 6l10 7l13 9l13 10q25 21 50 52q19 32 19 81q0 63 -15.5 89.5t-34.5 33.5l-15 4l-14 1q-41 0 -61 -28.5t-20 -63.5v-8l1 -8q0 -14 2 -18l6 -15l13 -28l-27 -18zM190 34q-27 -20 -47 -38q-23 -24 -40 -52
q-14 -28 -14 -66q0 -65 45 -105t106 -40q59 0 102.5 35.5t43.5 104.5v28q-3 11 -5 21.5t-15 29.5q-18 30 -48 57l-8 7l-6 7l-4 3l-3 4l-18 18l-30 32z" />
    <glyph glyph-name="H" unicode="H" horiz-adv-x="441" 
d="M276 673l15 -10l18 -14q18 -15 33 -38.5t15 -53.5v-6q0 -24 -12 -44t-40 -37q22 -12 34.5 -25t21.5 -31l6 -21l2 -20q0 -29 -15 -53t-49 -39q37 -18 55 -46q15 -25 23 -59l1 -16l1 -16q0 -75 -39 -111t-91 -47l-17 -2l-16 -1q-64 0 -115 44t-51 123h44q0 -53 36.5 -90.5
t87.5 -37.5q54 0 84.5 33.5t30.5 82.5q0 19 -2 30t-7 24q-12 25 -45 52q-32 24 -109 35v40l12 -2l19 -3h4l22 -4l15 -1q32 0 53.5 17t21.5 47q0 45 -43 66q-19 10 -42.5 18.5t-53.5 16.5h-4l-4 2v42l9 -3l12 -3q7 0 9 -2l9 -2l23 -4l18 -2q23 0 39 15t16 41q0 14 -2 19
q0 5 -7 20.5t-40 35.5l-86 53v50z" />
    <glyph glyph-name="I" unicode="I" horiz-adv-x="230" 
d="M88 189v512h54v-189v-512h-54v189z" />
    <glyph glyph-name="J" unicode="J" horiz-adv-x="452" 
d="M73 179l-3 -25q0 -32 21 -48t45 -16q25 0 36 9.5t20 25.5l4 15l1 13q0 20 -12.5 36.5t-36.5 20.5v32l20 -3l21 -1q67 0 120.5 38t68.5 100l43 -1v-455l-2 -44l-3 -27l-9 -32q-14 -47 -53 -85.5t-122 -38.5q-87 0 -139.5 46t-52.5 117l1 14l2 14q5 21 18 45q14 22 38 39
l26 -22q-15 -12 -28 -32q-11 -20 -11 -55q0 -63 44 -94.5t94 -31.5q75 0 105 33t42 74l6 45l1 37v362h-7q-11 -18 -40 -38l-25 -14l-28 -12l-30 -10l-27 -5q6 -7 12 -23t6 -35l-1 -12l-2 -13q-6 -21 -30 -47q-23 -21 -65 -21t-80 24q-33 24 -33 70l1 15l3 16l5 15l6 15
l37 -11z" />
    <glyph glyph-name="K" unicode="K" horiz-adv-x="415" 
d="M344 361l2 -14l1 -22l1 -24q0 -34 -2 -54.5t-9 -40.5q-11 -36 -25 -57l-16 -18l-12 -11v-6q56 -9 72.5 -62.5t16.5 -122.5q0 -87 -27 -161.5t-152 -74.5q-69 0 -117.5 39.5t-48.5 119.5l3 42q3 20 11 34q12 25 45 59l24 -24q-12 -12 -22 -32l-12 -41l-3 -17v-17
q0 -59 38 -91t88 -32q74 0 100 45.5t26 91.5l1 24v24v5v6v5v4l-1 29v20l-4 14q-6 30 -26.5 57t-64.5 27q-21 0 -35 -7l-23 -13l-2 -2l-15 35l5 2q79 30 108.5 72.5t29.5 124.5l-2 23l-3 27l-3 14q0 11 -2 15h53q0 -11 2 -15z" />
    <glyph glyph-name="L" unicode="L" horiz-adv-x="860" 
d="M707 93l3 4l4 6q17 21 30.5 55t13.5 74q0 42 -18.5 63.5t-43.5 30.5l-10 1l-9 1q-63 0 -80.5 -59t-17.5 -130v-15l1 -15h-39v11l1 12v10v12q0 68 -20.5 121t-85.5 53q-57 0 -73 -47q-8 -25 -12 -48.5t-4 -52.5v-7v-6v-15l1 -15v-14v-14h-36l-1 25l-1 26q0 21 -1.5 30.5
t-6 26.5t-8 28t-11.5 30q-21 53 -85 53l-11 -1l-10 -2q-28 -8 -51.5 -40.5t-23.5 -95.5l1 -37l7 -35q8 -33 27 -80q32 -68 98 -130.5t178 -89.5l10 -2l10 -3l18 -4l18 -5l32 -10q29 -9 62 -25q51 -23 144 -75l-100 -1q-45 32 -114 58q-28 9 -62.5 17.5t-73.5 16.5l-74 10
l-71 3h-24l-23 -1l-9 47l17 2h16h23q14 0 19 -2l-47 51l-41 53q-33 47 -62 111q-11 28 -18 59q-3 16 -5 31.5t-2 30.5q0 87 42 138t103 51q15 0 21 -2l22 -5q25 -8 45 -25q21 -15 37 -41q15 31 41.5 47.5t60.5 24.5h11l10 1q37 0 66 -20q32 -18 48 -53q17 30 47.5 51.5
t68.5 21.5l15 -1l16 -3q34 -9 64.5 -39.5t30.5 -83.5v-9l-1 -9q0 -18 -12 -62q-9 -39 -54 -90z" />
    <glyph glyph-name="M" unicode="M" horiz-adv-x="440" 
d="M71 550l-3 33q0 70 46 113q49 40 108 40q65 0 95 -29q30 -27 42 -63l6 -20q3 -9 3 -23l2 -33v-393q0 -89 -45.5 -140.5t-111.5 -51.5q-75 0 -116 61t-41 131q0 91 47 141q24 26 52 39t58 13q35 0 58.5 -15.5t39.5 -33.5l9 -13l7 -12v266l-1 22q0 18 -2 24
q-6 33 -27.5 61.5t-74.5 28.5q-51 0 -80.5 -34t-29.5 -78v-27l3 -23l2 -7l2 -6l-34 -17l-8 22zM227 23l15 4q30 9 56 46.5t26 101.5t-30.5 108.5t-80.5 44.5q-47 0 -79 -45t-32 -108t24.5 -99.5t57.5 -48.5l15 -4l14 -1z" />
    <glyph glyph-name="N" unicode="N" horiz-adv-x="467" 
d="M430 662q-22 -15 -44 -21l-22 -3l-20 -1l-31 1h-11l-19 2h-9l-9 1l-18 1l-18 1h-6h-4q-27 0 -52.5 -22t-25.5 -103v-224l7 12l9 13q13 17 38 33t60 16q60 0 108.5 -51.5t48.5 -141.5q0 -72 -39.5 -132t-117.5 -60q-62 0 -109.5 51.5t-47.5 140.5v380l2 25l10 32
q12 27 42 49t84 22l27 -1q21 0 27 -2q9 0 12 -2h14l13 -1h13q27 0 42 6t23 14l6 8l4 7h42q-6 -33 -29 -50zM269 23l15 4q30 9 56 46.5t26 101.5q0 65 -30.5 109t-80.5 44q-46 0 -78.5 -45.5t-32.5 -107.5q0 -63 24.5 -99.5t57.5 -48.5l15 -4l14 -1z" />
    <glyph glyph-name="O" unicode="O" horiz-adv-x="690" 
d="M161 0l-16 16l-35 41l-30 46q-24 45 -24 101q0 72 47 118t110 46l20 -1q9 0 20 -4l25 -8q13 -5 26 -14q22 -15 41 -44q15 29 41.5 45t56.5 23l17 2l16 1q63 0 110.5 -45t47.5 -119l-1 -15l-1 -15l-7 -30q-3 -19 -11 -30l62 -38l-25 -39l-59 37l-23 -32q-13 -15 -58 -59
l-18 16q35 35 59.5 82.5t33.5 99.5l1 13l1 13q0 48 -24 76.5t-56 39.5l-16 4l-15 1q-70 0 -92 -58q-19 -63 -19 -128v-5v-5h-43v5v5q0 70 -18.5 128t-92.5 58q-11 0 -16 -2l-16 -3q-31 -9 -54.5 -36.5t-23.5 -79.5q0 -31 15 -83t79 -124l-17 -18z" />
    <glyph glyph-name="P" unicode="P" horiz-adv-x="462" 
d="M165 712q0 -16 6.5 -29.5t20.5 -26.5l24 -20l35 -20l20 -10l22 -14q25 -15 45.5 -42.5t20.5 -69.5q0 -36 -16.5 -60t-39.5 -39l-21 -11l-17 -6v-5q65 -6 103 -55.5t38 -123.5q0 -96 -55 -146.5t-131 -50.5q-75 0 -112 38t-49 85l-3 14v15v18l5 19q1 10 12 28l8 13l11 14
l26 -19l-7 -17l-5 -17l-3 -18l-1 -16v-6v-5q0 -20 7.5 -36.5t25.5 -37.5q29 -33 87 -33q68 0 103 47t35 111l-3 30q0 15 -12 45t-43 53q-31 25 -86 25h-9h-9l-10 -1h-9v44q54 0 94 28t40 75q0 32 -18.5 52t-39.5 33l-12 7l-12 7l-20 11l-23 16q-20 15 -37 38t-17 53v8l1 8
h30z" />
    <glyph glyph-name="Q" unicode="Q" horiz-adv-x="448" 
d="M378 389v-511l-2 -35q0 -13 -2 -17q0 -7 -7 -27q-12 -39 -48.5 -72.5t-114.5 -33.5q-69 0 -122.5 38.5t-53.5 116.5q0 42 15 80t55 65l24 -27q-23 -19 -36 -47q-12 -30 -12 -62v-7l1 -8q0 -39 33.5 -74t95.5 -35q61 0 87.5 26t35.5 58l6 33l2 28v349h-99l-12 -1l-14 -2
q-13 -3 -23.5 -13t-10.5 -31l1 -11l3 -11l8 -15l11 -13l-24 -20l-3 2l-3 3q-16 13 -27.5 29.5t-11.5 44.5v4v4q3 23 27 47q25 22 79 22h99v370l-136 -161l-28 21l173 216l34 -1v-322z" />
    <glyph glyph-name="R" unicode="R" horiz-adv-x="689" 
d="M373 -228l-71 22q-17 4 -31 6t-34 2q-15 0 -21 2h-22l-30 -1q-21 0 -29 -2v42l31 6l26 1h13l11 -1q-56 47 -93.5 107.5t-55.5 124.5l-8 46l-3 45q0 90 47 143t111 53h9l10 -1q12 0 21 -2t22 -8l25 -14q31 -18 46 -60l10 16l15 18q13 13 46 35q16 8 32 12t38 4l10 -1h12
q46 -6 84.5 -40t38.5 -102q0 -30 -5 -54t-8.5 -34.5t-12.5 -29.5q-24 -57 -75 -96l-18 20q16 16 35 46q12 22 22 50q1 3 5 17.5t6 26.5l4 42q0 49 -23 75q-18 24 -48 35l-15 4l-14 1q-72 0 -94 -62q-10 -30 -17 -64.5t-7 -71.5l-1 -27v-26h-43l-1 21v17v9v11v5l-1 34l-3 38
q-6 42 -28 79t-79 37l-8 -1h-7q-32 -6 -63.5 -45t-31.5 -111q0 -105 42 -172t98 -111q34 -26 70 -46l53 -25l50 -24l42 -22l29 -17l26 -18q24 -18 48 -42l-76 -1q-43 52 -111 79z" />
    <glyph glyph-name="S" unicode="S" horiz-adv-x="568" 
d="M58 494l-12 12l-9 14q-12 20 -18 39l-5 34v8l1 10q0 17 1.5 23.5t6.5 19.5q9 21 25 43q30 39 88 39q42 0 71 -20q27 -16 44 -52q15 31 48 52q16 10 34 15t40 5q51 0 80 -27q23 -24 35 -59l4 -21l4 -21l1 -32v-401q0 -89 -45.5 -140.5t-111.5 -51.5q-62 0 -109.5 51.5
t-47.5 140.5t46.5 141t110.5 52q35 0 58.5 -15.5t39.5 -33.5l9 -13l7 -12v282q0 57 -21.5 88.5t-62.5 31.5q-60 0 -83 -48q-18 -48 -18 -114v-4v-4v-5v-4h-37v6l1 7v6v7v14l-1 15q0 24 -5 44l-6 24q-6 12 -8 17q-15 39 -69 39l-12 -1l-13 -3q-19 -6 -40 -30q-19 -25 -19 -71
q0 -31 12 -58q13 -25 35 -42l-21 -22zM418 64q33 42 33 111q0 64 -30.5 108.5t-80.5 44.5q-43 0 -73 -36q-23 -34 -34 -79l-3 -20l-1 -18q0 -69 33 -111t78 -42t78 42z" />
    <glyph glyph-name="T" unicode="T" horiz-adv-x="718" 
d="M556 52q23 26 37 53q12 27 18 54l5 48q0 55 -32 87q-31 34 -80 34q-47 0 -78 -24t-43 -57l7 -34l2 -36q0 -76 -40 -135t-128 -59q-80 0 -124 60.5t-44 131.5q0 73 42 133t126 60l36 -4q25 -3 50 -20l26 -21q12 -12 25 -32l11 13l14 16q18 18 48 33t72 15q63 0 109.5 -46
t46.5 -119q0 -76 -39.5 -128t-109.5 -92l-15 23q36 21 58 46zM240 23l16 4q33 9 62 46.5t29 101.5l-1 18l-3 20q-8 43 -37 79t-82 36q-50 0 -82 -36q-27 -36 -36 -79l-3 -20l-1 -18q0 -67 27 -100.5t64 -47.5l16 -4l15 -1z" />
    <glyph glyph-name="U" unicode="U" horiz-adv-x="677" 
d="M86 276q0 -40 11 -68q9 -28 46 -28q21 0 32 11t15 24l4 15q0 10 2 13q8 58 29.5 91.5t75.5 33.5l17 -1q10 0 20 -5q10 -3 23 -13q9 -5 20 -22l14 14l16 11q9 4 14.5 6t21.5 7l24 3q59 0 87 -27t40 -61q5 -20 7 -39l2 -32v-290q0 -82 -38.5 -154t-208.5 -72
q-124 0 -179.5 45.5t-64.5 99.5l-1 10v8l3 36q3 20 13 41l15 28l24 27l23 -22l-8 -9l-6 -12q-12 -21 -15 -43l-3 -37v-7l1 -8q6 -41 51.5 -79t146.5 -38q115 0 159.5 42.5t44.5 139.5v289l-1 23l-3 29q-3 25 -24 49q-18 23 -62 23q-40 0 -55 -24q-12 -22 -17 -57l-1 -11v-10
v-86h-44v86q0 43 -9.5 72.5t-45.5 29.5q-29 0 -41 -21q-8 -18 -16 -49l-2 -4v-4l-3 -15l-3 -15q-6 -28 -26 -54t-64 -26q-48 0 -72 24q-21 24 -28 53l-5 31v27v74h43z" />
    <glyph glyph-name="V" unicode="V" horiz-adv-x="569" 
d="M202 189l-191 512h60l28 -77l185 -512l28 77l185 512h61l-82 -218l-192 -511z" />
    <glyph glyph-name="W" unicode="W" horiz-adv-x="507" 
d="M450 190v-57l-95 85l-3 -3l10 -48l9 -34l3 -12l4 -10l4 -14l5 -15l7 -23l10 -28l14 -56l9 -63v-8v-8q0 -98 -55.5 -150.5t-146.5 -52.5t-144 47.5t-53 117.5q0 48 20 85.5t46 62.5l23 -21l-5 -5l-5 -8l-10 -16l-13 -27q-10 -30 -10 -57q0 -52 39 -96t113 -44q65 0 110 42
t45 121q0 16 -4 35l-8 41l-5 20l-4 17l-3 8l-2 8l-3 9l-3 9l-18 60l-22 87l-14 -11l-14 -8l-28 -12l-25 -3q-45 0 -68 20q-21 22 -30 47l-3 11v11l1 14q0 7 4 15q6 21 27 39t61 18h12l21 -4q18 -3 36 -12l10 -5l11 -6l4 35l6 29l3 18l5 21l8 50l3 39q0 44 -22.5 67.5
t-52.5 36.5l-21 7l-19 7l-22 7l-15 6l-3 1l-11 5l-12 5l5 -55l2 -53v-14l-1 -13l-1 -14v-14h-33v11q0 46 -4 73v15q-3 12 -4 18l-9 39q-5 22 -13 40l-7 19q-3 12 -10 23h63q9 -20 23 -31q14 -9 36 -18l13 -5l17 -5l26 -9l12 -4q7 0 18 -7q33 -15 62 -46.5t29 -88.5v-11
l-2 -19l-3 -27l-4 -21l-4 -22l-14 -75l-6 -46l98 88v-60l-64 -56zM304 257l-3 2l-2 3q-5 4 -9 6q-9 5 -23 12q-20 11 -45 11q-19 0 -36 -11.5t-17 -33.5q0 -21 14 -35q12 -10 33 -16l4 -1h5l15 2l16 5l25 13l21 16l2 3v24z" />
    <glyph glyph-name="X" unicode="X" horiz-adv-x="506" 
d="M69 0h-62l210 357l-194 344h62l167 -308l168 308h62l-195 -344l211 -357h-62l-184 325z" />
    <glyph glyph-name="Y" unicode="Y" horiz-adv-x="445" 
d="M378 -122l-2 -35q0 -13 -2 -17q0 -7 -7 -27q-12 -39 -48.5 -72.5t-114.5 -33.5q-69 0 -122.5 38.5t-53.5 116.5q0 42 15 80t55 65l24 -27q-23 -19 -36 -47q-12 -30 -12 -62v-7l1 -8q0 -39 33.5 -74t95.5 -35q61 0 87.5 26t35.5 58l6 33l2 28v303l-10 -13l-15 -16l-39 -24
q-22 -11 -54 -11q-58 0 -106.5 36t-48.5 93l1 20l2 28q1 6 4 17.5t7 22.5q9 24 21 42l35 -16l-10 -24l-9 -24l-5 -41q0 -57 32 -86q34 -28 78 -28l18 1l20 5q29 9 54 44q25 38 25 115v46h43v-490z" />
    <glyph glyph-name="Z" unicode="Z" horiz-adv-x="406" 
d="M370 712v-25v-512q0 -89 -45.5 -140.5t-111.5 -51.5q-62 0 -109.5 51.5t-47.5 140.5t46.5 141t110.5 52q35 0 58.5 -15.5t39.5 -33.5l9 -13l7 -12v418h43zM291 64q33 42 33 111q0 64 -30.5 108.5t-80.5 44.5q-49 0 -77 -42t-34 -98v-7v-6q0 -69 33 -111t78 -42t78 42z
" />
    <glyph glyph-name="bracketleft" unicode="[" horiz-adv-x="440" 
 />
    <glyph glyph-name="backslash" unicode="\" horiz-adv-x="506" 
 />
    <glyph glyph-name="bracketright" unicode="]" horiz-adv-x="394" 
 />
    <glyph glyph-name="asciicircum" unicode="^" 
 />
    <glyph glyph-name="underscore" unicode="_" horiz-adv-x="546" 
 />
    <glyph glyph-name="grave" unicode="`" horiz-adv-x="406" 
d="M123 -89q12 32 12 53l-1 13l-1 10l-6 -1h-5q-18 0 -31.5 10t-13.5 27q0 18 12 32.5t34 14.5t37 -14t15 -56v-12q0 -8 -2 -16q0 -9 -5 -26t-14 -33l-14 -29q-6 -12 -23 -32q-12 -17 -30 -33l-17 16q38 39 53 76zM284 -89q2 5 7.5 23.5t5.5 29.5l-1 13l-2 10l-5 -1h-6
q-18 0 -31.5 10t-13.5 27q0 18 12 32.5t34 14.5t37 -14t15 -56v-12q0 -8 -2 -16q0 -9 -5 -26t-14 -33l-14 -29q-6 -12 -23 -32q-12 -17 -30 -33l-17 16q38 39 53 76z" />
    <glyph glyph-name="a" unicode="a" horiz-adv-x="436" 
d="M216 335q11 -12 29 -22l2 -2l3 -1l16 -9l16 -8q36 -21 67 -55t31 -96t-41.5 -110.5t-116.5 -48.5q-62 0 -114 36t-52 115q0 23 6 45t19 42l34 -9l-6 -23l-5 -25l-2 -14v-14q0 -53 35.5 -83.5t84.5 -30.5q54 0 78 28.5t32 64.5l1 12l1 12q0 42 -20 66q-18 25 -46 43l-17 9
l-16 8l-11 4l-10 6q-15 8 -32 25q-14 16 -14 48l1 13q0 11 2 15h35q0 -27 10 -41z" />
    <glyph glyph-name="b" unicode="b" horiz-adv-x="495" 
d="M294 516v-6v-7v-6l-1 -8v-6v-6v-6q0 -35 6 -56q7 -19 23 -36l10 -10l12 -10l10 -10l11 -9q32 -31 57.5 -71.5t25.5 -97.5l-1 -14l-1 -13q-6 -61 -52 -111t-144 -50q-93 0 -143.5 58.5t-50.5 136.5q0 50 21.5 85t46.5 57l20 16l19 13q12 8 25 19t22 20q17 19 27 37l8 35
l2 41q0 51 -33.5 78t-76.5 33q-2 -10 -3.5 -23t-1.5 -15q0 -11 -6 -34l-6 -42l-4 -14l-3 -11l-32 6l4 19l4 19l6 72l2 56v14l-2 22l-4 31h43q0 -15 7 -26l18 -19l9 -6l11 -6l31 -18l24 -16q21 -12 33.5 -27.5t19.5 -32.5l4 -18l2 -20zM226 351l-35 -26q-36 -30 -64 -64
q-25 -34 -25 -85v-14l2 -13q6 -47 42 -87t110 -40q70 0 103.5 38.5t41.5 87.5v12l1 12q0 60 -37 104.5t-85 86.5l-2 2l-2 2l-7 6l-6 6z" />
    <glyph glyph-name="c" unicode="c" horiz-adv-x="626" 
d="M139 237q-29 -62 -43 -134l-6 -44l-2 -44l4 -49q0 -24 11 -54q5 -14 16 -38q23 -52 74 -96.5t146 -44.5q83 0 141 44.5t58 133.5q0 64 -26 93q-23 29 -57 46l-22 8l-21 4v31l16 1l18 3q33 8 58 29t25 64q0 29 -14 44t-35 28l-3 2l-50 33q-6 5 -11.5 10t-14.5 17l-10 22
l-2 22h35l12 -24q8 -9 21 -18l14 -9l18 -9l16 -8l19 -11q18 -12 34.5 -34.5t16.5 -54.5l-3 -28q-3 -13 -10.5 -29t-28.5 -38q-14 -13 -46 -28q33 -12 53 -35l15 -19l15 -27q9 -18 12 -44l2 -36q0 -108 -73 -165.5t-171 -57.5q-127 0 -212.5 85t-85.5 236q0 126 46.5 211.5
t102.5 135.5l9 7l9 8l21 -21q-57 -51 -91 -118z" />
    <glyph glyph-name="d" unicode="d" horiz-adv-x="693" 
d="M386 -234q-59 24 -122 33l-36 3l-34 1l-31 -1q-21 0 -28 -2v43l32 5l26 1h10l12 -1q-63 55 -111 140t-48 183q0 85 35.5 129.5t78.5 59.5l22 6l22 2l28 -3q12 0 16 -2l14 -6q19 -6 43 -24q16 -11 38 -39l3 4l3 6q14 22 44.5 43t75.5 21q75 0 116.5 -59.5t41.5 -133.5
q0 -72 -39.5 -132t-118.5 -60q-76 0 -116 60t-40 133l3 38l7 37q-14 26 -34 42q-16 15 -43 26l-23 7l-21 2l-8 -1h-7q-33 -6 -65 -44q-30 -38 -30 -113q0 -105 42 -170.5t97 -111.5q29 -24 72 -47l52 -25l81 -39q42 -20 94 -66l9 -8l10 -10l-76 -1q-34 45 -97 74zM493 23
q6 0 14 4q30 9 57 45t27 103q0 65 -30.5 109t-81.5 44q-46 0 -78.5 -45.5t-32.5 -107.5q0 -63 24.5 -99.5t57.5 -48.5l15 -4l14 -1z" />
    <glyph glyph-name="e" unicode="e" horiz-adv-x="448" 
d="M72 172l-6 39v10l1 12q6 51 42 93t115 42q101 0 127.5 -61t26.5 -128v-6v-5v-290l-2 -35q0 -13 -2 -17q0 -7 -7 -27q-12 -39 -48.5 -72.5t-114.5 -33.5q-69 0 -122.5 38.5t-53.5 116.5q0 42 15 80t55 65l24 -27q-23 -19 -36 -47q-12 -30 -12 -62v-7l1 -8q0 -39 33.5 -74
t95.5 -35q61 0 87.5 26t35.5 58l6 33l2 28v290q0 100 -29.5 130t-78.5 30q-54 0 -78 -21t-33 -52l-3 -19l-1 -17q0 -18 2 -24l6 -25l9 -26l11 -23l-40 -17q-21 38 -28 68z" />
    <glyph glyph-name="f" unicode="f" horiz-adv-x="718" 
d="M366 298l7 8q18 23 52 42.5t81 19.5l10 -1h10q47 -6 90.5 -45.5t43.5 -111.5q0 -61 -28.5 -100t-73.5 -64q53 -15 78 -49.5t34 -77.5l2 -17l1 -18l-1 -18q0 -14 -2 -19q-9 -57 -54.5 -105.5t-162.5 -48.5q-100 0 -162 39.5t-62 100.5q0 15 2 21l6 22q3 13 10 24l18 20
l30 -22l-12 -19l-7 -24l-1 -5v-5q0 -47 47.5 -79.5t133.5 -32.5q90 0 127 41t43 94l1 7v8q0 66 -34 100q-33 30 -75 39l-14 1l-14 1h-5h-5v26q64 11 99 56.5t35 103.5q0 47 -29.5 82.5t-80.5 35.5q-48 0 -79.5 -24.5t-42.5 -56.5l7 -34l3 -37q0 -72 -39.5 -132.5
t-128.5 -60.5q-80 0 -124 60.5t-44 131.5q0 72 42.5 132.5t125.5 60.5q51 0 83.5 -22.5t53.5 -54.5zM310 64q36 42 36 111v6v7q0 25 -9 49.5t-26 46.5q-30 44 -87 44q-52 0 -87 -45t-35 -108q0 -67 27 -100.5t64 -47.5l16 -4l15 -1q47 0 86 42z" />
    <glyph glyph-name="g" unicode="g" horiz-adv-x="475" 
d="M53 178l-8 24l-3 31q0 56 33 90t75 43l13 1l12 1l23 -3q11 0 32 -12q19 -9 39.5 -39t20.5 -87l-1 -17l-1 -21v-4q0 -11 -2 -16v-13q0 -15 -2 -18l-1 -8v-4q0 -12 9 -29l21 -24l10 -10l9 -8l15 -14l14 -13q32 -30 51.5 -66.5t19.5 -86.5q0 -77 -48.5 -129.5t-141.5 -52.5
q-98 0 -148.5 58t-50.5 128q0 59 27 97q24 28 61 59l8 6l10 7l13 9l13 10q25 21 50 52q19 32 19 81q0 63 -15.5 89.5t-34.5 33.5l-15 4l-14 1q-41 0 -61 -28.5t-20 -63.5v-8l1 -8q0 -14 2 -18l6 -15l13 -28l-27 -18zM190 34q-27 -20 -47 -38q-23 -24 -40 -52
q-14 -28 -14 -66q0 -65 45 -105t106 -40q59 0 102.5 35.5t43.5 104.5v28q-3 11 -5 21.5t-15 29.5q-18 30 -48 57l-8 7l-6 7l-4 3l-3 4l-18 18l-30 32z" />
    <glyph glyph-name="h" unicode="h" horiz-adv-x="441" 
d="M276 673l15 -10l18 -14q18 -15 33 -38.5t15 -53.5v-6q0 -24 -12 -44t-40 -37q22 -12 34.5 -25t21.5 -31l6 -21l2 -20q0 -29 -15 -53t-49 -39q37 -18 55 -46q15 -25 23 -59l1 -16l1 -16q0 -75 -39 -111t-91 -47l-17 -2l-16 -1q-64 0 -115 44t-51 123h44q0 -53 36.5 -90.5
t87.5 -37.5q54 0 84.5 33.5t30.5 82.5q0 19 -2 30t-7 24q-12 25 -45 52q-32 24 -109 35v40l12 -2l19 -3h4l22 -4l15 -1q32 0 53.5 17t21.5 47q0 45 -43 66q-19 10 -42.5 18.5t-53.5 16.5h-4l-4 2v42l9 -3l12 -3q7 0 9 -2l9 -2l23 -4l18 -2q23 0 39 15t16 41q0 14 -2 19
q0 5 -7 20.5t-40 35.5l-86 53v50z" />
    <glyph glyph-name="i" unicode="i" horiz-adv-x="475" 
d="M365 315q54 -53 54 -136q0 -64 -31 -112.5t-77 -83.5l-17 16q53 56 66 106t13 70q0 61 -35 107t-100 46q-63 0 -99.5 -45.5t-36.5 -107.5q0 -18 1 -27t8.5 -34.5t26.5 -58.5l19 -28l24 -27l-17 -18q-42 34 -75 83.5t-33 113.5q0 81 54 135t127 54q74 0 128 -53z" />
    <glyph glyph-name="j" unicode="j" horiz-adv-x="394" 
d="M187 219l103 157q2 3 8.5 17t8.5 20l3 19q0 14 -11 23.5t-28 11.5q-18 0 -26.5 -8.5t-14.5 -22.5l-4 -14l-1 -11h-25v4v5v12q0 9 2 12q5 21 22 40q19 19 56 19q28 0 43.5 -11.5t24.5 -28.5l3 -13l1 -11q0 -18 -9 -39l-20 -36l-6 -9l-5 -8l-104 -161l121 -186h-43
l-100 152l-84 -129q39 -29 69 -69q14 -19 22.5 -43.5t8.5 -51.5q0 -65 -42.5 -112t-113.5 -54v24q47 9 78 45q32 34 32 88q0 39 -21.5 70t-47.5 51l-22 17l-20 12l120 185l-123 191h44z" />
    <glyph glyph-name="k" unicode="k" horiz-adv-x="415" 
d="M344 361l2 -14l1 -22l1 -24q0 -34 -2 -54.5t-9 -40.5q-11 -36 -25 -57l-16 -18l-12 -11v-6q56 -9 72.5 -62.5t16.5 -122.5q0 -87 -27 -161.5t-152 -74.5q-69 0 -117.5 39.5t-48.5 119.5l3 42q3 20 11 34q12 25 45 59l24 -24q-12 -12 -22 -32l-12 -41l-3 -17v-17
q0 -59 38 -91t88 -32q74 0 100 45.5t26 91.5l1 24v24v5v6v5v4l-1 29v20l-4 14q-6 30 -26.5 57t-64.5 27q-21 0 -35 -7l-23 -13l-2 -2l-15 35l5 2q79 30 108.5 72.5t29.5 124.5l-2 23l-3 27l-3 14q0 11 -2 15h53q0 -11 2 -15z" />
    <glyph glyph-name="l" unicode="l" horiz-adv-x="860" 
d="M707 93l3 4l4 6q17 21 30.5 55t13.5 74q0 42 -18.5 63.5t-43.5 30.5l-10 1l-9 1q-63 0 -80.5 -59t-17.5 -130v-15l1 -15h-39v11l1 12v10v12q0 68 -20.5 121t-85.5 53q-57 0 -73 -47q-8 -25 -12 -48.5t-4 -52.5v-7v-6v-15l1 -15v-14v-14h-36l-1 25l-1 26q0 21 -1.5 30.5
t-6 26.5t-8 28t-11.5 30q-21 53 -85 53l-11 -1l-10 -2q-28 -8 -51.5 -40.5t-23.5 -95.5l1 -37l7 -35q8 -33 27 -80q32 -68 98 -130.5t178 -89.5l10 -2l10 -3l18 -4l18 -5l32 -10q29 -9 62 -25q51 -23 144 -75l-100 -1q-45 32 -114 58q-28 9 -62.5 17.5t-73.5 16.5l-74 10
l-71 3h-24l-23 -1l-9 47l17 2h16h23q14 0 19 -2l-47 51l-41 53q-33 47 -62 111q-11 28 -18 59q-3 16 -5 31.5t-2 30.5q0 87 42 138t103 51q15 0 21 -2l22 -5q25 -8 45 -25q21 -15 37 -41q15 31 41.5 47.5t60.5 24.5h11l10 1q37 0 66 -20q32 -18 48 -53q17 30 47.5 51.5
t68.5 21.5l15 -1l16 -3q34 -9 64.5 -39.5t30.5 -83.5v-9l-1 -9q0 -18 -12 -62q-9 -39 -54 -90z" />
    <glyph glyph-name="m" unicode="m" horiz-adv-x="440" 
d="M71 550l-3 33q0 70 46 113q49 40 108 40q65 0 95 -29q30 -27 42 -63l6 -20q3 -9 3 -23l2 -33v-393q0 -89 -45.5 -140.5t-111.5 -51.5q-75 0 -116 61t-41 131q0 91 47 141q24 26 52 39t58 13q35 0 58.5 -15.5t39.5 -33.5l9 -13l7 -12v266l-1 22q0 18 -2 24
q-6 33 -27.5 61.5t-74.5 28.5q-51 0 -80.5 -34t-29.5 -78v-27l3 -23l2 -7l2 -6l-34 -17l-8 22zM227 23l15 4q30 9 56 46.5t26 101.5t-30.5 108.5t-80.5 44.5q-47 0 -79 -45t-32 -108t24.5 -99.5t57.5 -48.5l15 -4l14 -1z" />
    <glyph glyph-name="n" unicode="n" horiz-adv-x="467" 
d="M430 662q-22 -15 -44 -21l-22 -3l-20 -1l-31 1h-11l-19 2h-9l-9 1l-18 1l-18 1h-6h-4q-27 0 -52.5 -22t-25.5 -103v-224l7 12l9 13q13 17 38 33t60 16q60 0 108.5 -51.5t48.5 -141.5q0 -72 -39.5 -132t-117.5 -60q-62 0 -109.5 51.5t-47.5 140.5v380l2 25l10 32
q12 27 42 49t84 22l27 -1q21 0 27 -2q9 0 12 -2h14l13 -1h13q27 0 42 6t23 14l6 8l4 7h42q-6 -33 -29 -50zM269 23l15 4q30 9 56 46.5t26 101.5q0 65 -30.5 109t-80.5 44q-46 0 -78.5 -45.5t-32.5 -107.5q0 -63 24.5 -99.5t57.5 -48.5l15 -4l14 -1z" />
    <glyph glyph-name="o" unicode="o" horiz-adv-x="690" 
d="M161 0l-16 16l-35 41l-30 46q-24 45 -24 101q0 72 47 118t110 46l20 -1q9 0 20 -4l25 -8q13 -5 26 -14q22 -15 41 -44q15 29 41.5 45t56.5 23l17 2l16 1q63 0 110.5 -45t47.5 -119l-1 -15l-1 -15l-7 -30q-3 -19 -11 -30l62 -38l-25 -39l-59 37l-23 -32q-13 -15 -58 -59
l-18 16q35 35 59.5 82.5t33.5 99.5l1 13l1 13q0 48 -24 76.5t-56 39.5l-16 4l-15 1q-70 0 -92 -58q-19 -63 -19 -128v-5v-5h-43v5v5q0 70 -18.5 128t-92.5 58q-11 0 -16 -2l-16 -3q-31 -9 -54.5 -36.5t-23.5 -79.5q0 -31 15 -83t79 -124l-17 -18z" />
    <glyph glyph-name="p" unicode="p" horiz-adv-x="462" 
d="M165 712q0 -16 6.5 -29.5t20.5 -26.5l24 -20l35 -20l20 -10l22 -14q25 -15 45.5 -42.5t20.5 -69.5q0 -36 -16.5 -60t-39.5 -39l-21 -11l-17 -6v-5q65 -6 103 -55.5t38 -123.5q0 -96 -55 -146.5t-131 -50.5q-75 0 -112 38t-49 85l-3 14v15v18l5 19q1 10 12 28l8 13l11 14
l26 -19l-7 -17l-5 -17l-3 -18l-1 -16v-6v-5q0 -20 7.5 -36.5t25.5 -37.5q29 -33 87 -33q68 0 103 47t35 111l-3 30q0 15 -12 45t-43 53q-31 25 -86 25h-9h-9l-10 -1h-9v44q54 0 94 28t40 75q0 32 -18.5 52t-39.5 33l-12 7l-12 7l-20 11l-23 16q-20 15 -37 38t-17 53v8l1 8
h30z" />
    <glyph glyph-name="q" unicode="q" horiz-adv-x="448" 
d="M378 389v-511l-2 -35q0 -13 -2 -17q0 -7 -7 -27q-12 -39 -48.5 -72.5t-114.5 -33.5q-69 0 -122.5 38.5t-53.5 116.5q0 42 15 80t55 65l24 -27q-23 -19 -36 -47q-12 -30 -12 -62v-7l1 -8q0 -39 33.5 -74t95.5 -35q61 0 87.5 26t35.5 58l6 33l2 28v349h-99l-12 -1l-14 -2
q-13 -3 -23.5 -13t-10.5 -31l1 -11l3 -11l8 -15l11 -13l-24 -20l-3 2l-3 3q-16 13 -27.5 29.5t-11.5 44.5v4v4q3 23 27 47q25 22 79 22h99v370l-136 -161l-28 21l173 216l34 -1v-322z" />
    <glyph glyph-name="r" unicode="r" horiz-adv-x="690" 
d="M161 0l-16 16l-35 41l-30 46q-24 45 -24 101q0 53 24 91q21 32 51 65l2 3l3 3l16 17l20 24l26 34l19 25q31 45 64 112q27 57 38 134h56q-12 -74 -53 -155.5t-137 -186.5l2 -5l15 2l15 1h6q19 0 33 -5q17 -3 35 -14q31 -15 53 -52q17 27 42 43t56 25q12 0 17 2l17 1
q63 0 110.5 -45t47.5 -119q0 -54 -25 -100.5t-64 -87.5l-17 -16l-17 -17l-18 16q62 67 78.5 121.5t16.5 86.5q0 48 -24 76.5t-56 39.5l-16 4l-15 1q-70 0 -92 -58q-19 -63 -19 -128v-5v-5h-43v5v5q0 70 -18.5 128t-92.5 58q-11 0 -16 -2l-16 -3q-31 -9 -54.5 -36.5
t-23.5 -79.5q0 -31 15 -83t79 -124l-17 -18z" />
    <glyph glyph-name="s" unicode="s" horiz-adv-x="473" 
d="M113 696v-512l1 -33l1 -17l9 -32q8 -24 35 -52t86 -28q56 0 91 36.5t35 81.5v16l-4 12l-9 28l-7 15l-7 17l-11 27l-8 28q0 9 -2 12v12q0 23 10 40q9 19 22 30l28 -17l-8 -17l-5 -19l-1 -7v-6l1 -14l4 -14l9 -22l11 -23l6 -12l5 -13l6 -19l4 -19l1 -10l1 -9v-12
q0 -7 -2 -15l-6 -27q-12 -45 -52 -82t-111 -37q-77 0 -114 35.5t-51 81.5l-9 46l-2 40v14v512h43v-16z" />
    <glyph glyph-name="t" unicode="t" horiz-adv-x="735" 
d="M134 -208q-78 98 -78 234q0 124 68 225t200 120l-7 7l-7 9l-21 31q-9 18 -12 36l-1 5v6v6l1 6q3 21 25 40t65 19q42 0 63 -18t27 -41l1 -6v-6v-6l-1 -5l-3 -18l-9 -18l-21 -31l-8 -9l-6 -7q131 -18 200 -119.5t69 -225.5q0 -136 -78.5 -234.5t-233.5 -98.5
q-152 0 -233 99zM553 -195q80 71 80 222q0 107 -53.5 195.5t-166.5 117.5l-2 -3l8 -8l9 -10l10 -15l11 -22q9 -15 9 -37q0 -31 -23 -54q-21 -23 -68 -23t-69 24t-22 50q0 22 9 42q6 13 8.5 17t12.5 18l9 10l8 8l-1 3q-110 -24 -165 -116.5t-55 -196.5q0 -151 80.5 -222.5
t184.5 -71.5q54 0 99.5 17t86.5 55zM333 296q-15 -21 -15 -49q0 -17 8 -26l19 -13l12 -3l10 -1l10 1l12 3q9 3 18 12t9 27q0 25 -14 47.5t-35 40.5zM376 386l10 9l21 29q9 15 9 31q0 22 -12.5 31.5t-33.5 13.5h-6q-16 0 -31 -9.5t-15 -35.5l1 -16l1.5 -6t5.5 -9l22 -29l9 -9
l10 -10z" />
    <glyph glyph-name="u" unicode="u" horiz-adv-x="677" 
d="M86 276q0 -40 11 -68q9 -28 46 -28q21 0 32 11t15 24l4 15q0 10 2 13q8 58 29.5 91.5t75.5 33.5l17 -1q10 0 20 -5q10 -3 23 -13q9 -5 20 -22l14 14l16 11q9 4 14.5 6t21.5 7l24 3q59 0 87 -27t40 -61q5 -20 7 -39l2 -32v-290q0 -82 -38.5 -154t-208.5 -72
q-124 0 -179.5 45.5t-64.5 99.5l-1 10v8l3 36q3 20 13 41l15 28l24 27l23 -22l-8 -9l-6 -12q-12 -21 -15 -43l-3 -37v-7l1 -8q6 -41 51.5 -79t146.5 -38q115 0 159.5 42.5t44.5 139.5v289l-1 23l-3 29q-3 25 -24 49q-18 23 -62 23q-40 0 -55 -24q-12 -22 -17 -57l-1 -11v-10
v-86h-44v86q0 43 -9.5 72.5t-45.5 29.5q-29 0 -41 -21q-8 -18 -16 -49l-2 -4v-4l-3 -15l-3 -15q-6 -28 -26 -54t-64 -26q-48 0 -72 24q-21 24 -28 53l-5 31v27v74h43z" />
    <glyph glyph-name="v" unicode="v" horiz-adv-x="407" 
d="M66 172l-1 26v12l1 12q0 24 9 48.5t28 51.5q34 46 113 46q74 0 111.5 -41t37.5 -103v-4v-4q0 -52 -20 -95q-18 -44 -65 -57v-4q51 -15 75 -63.5t24 -105.5q0 -81 -27.5 -121t-65.5 -60q-20 -9 -50 -14l-35 -3q-93 0 -133 53.5t-40 116.5q0 36 15 68.5t44 55.5l24 -24
q-17 -16 -26 -38l-9 -30l-1 -23l-1 -8v-8q0 -54 36 -88.5t99 -34.5q54 0 78.5 24.5t36.5 58.5q5 20 7 39l2 30q0 76 -29 110t-66 44l-20 4l-19 1h-5h-5v33h7l3 -1h4q44 0 80 33t36 113q0 46 -26 76t-73 30q-53 0 -80 -31q-20 -25 -29 -66l-3 -20v-18l1 -25q0 -14 2 -19h-42z
" />
    <glyph glyph-name="w" unicode="w" horiz-adv-x="550" 
d="M197 -290v18q0 75 -21 194q-5 30 -12 62.5t-20 80.5q-20 84 -51 197l-47 179q-18 72 -18 128l1 33q0 19 11 47q11 33 39.5 60t86.5 27q38 0 72.5 -17.5t48.5 -64.5q6 19 15.5 34.5t25.5 25.5q28 17 64 22h7q59 0 90.5 -40t31.5 -92v-22l-5 -20l-3 -14q-2 -7 -10 -18
q-10 -24 -30.5 -46.5t-55.5 -48.5l-20 20q31 28 54.5 64t23.5 85q0 44 -20 65q-15 18 -42 26l-8 1l-7 1l-16 -2q-8 -2 -16 -7q-19 -12 -38.5 -48t-19.5 -109v-55h-43v55l-1 28l-3 32q-6 38 -26.5 72t-70.5 34q-33 0 -61.5 -28t-28.5 -102q0 -14 2 -30t8 -47l24 -111l3 -14
l3 -12l1 -6l2 -6h325l-5 -26l-4 -26q-12 -69 -30 -139q-9 -38 -18 -69t-23 -69q-24 -76 -45 -133.5t-47 -116.5l-16 -35l-6 -17l-8 -17l-44 -1zM208 -30l19 -97q6 -35 6 -69v-12l1 -12l7 -1l34 99l43 129l29 101l28 107l9 43l9 44h-266z" />
    <glyph glyph-name="x" unicode="x" horiz-adv-x="440" 
d="M113 386l150 175v-60l-150 -170v-37l7 12l9 13q13 17 38 33t60 16q60 0 108.5 -51.5t48.5 -141.5q0 -72 -39.5 -132t-117.5 -60q-62 0 -109.5 51.5t-47.5 140.5v25v512h43v-326zM241 23l15 4q30 9 56 46.5t26 101.5q0 65 -30.5 109t-80.5 44q-46 0 -78.5 -45.5
t-32.5 -107.5q0 -63 24.5 -99.5t57.5 -48.5l15 -4l14 -1z" />
    <glyph glyph-name="y" unicode="y" horiz-adv-x="445" 
d="M378 -122l-2 -35q0 -13 -2 -17q0 -7 -7 -27q-12 -39 -48.5 -72.5t-114.5 -33.5q-69 0 -122.5 38.5t-53.5 116.5q0 42 15 80t55 65l24 -27q-23 -19 -36 -47q-12 -30 -12 -62v-7l1 -8q0 -39 33.5 -74t95.5 -35q61 0 87.5 26t35.5 58l6 33l2 28v303l-10 -13l-15 -16l-39 -24
q-22 -11 -54 -11q-58 0 -106.5 36t-48.5 93l1 20l2 28q1 6 4 17.5t7 22.5q9 24 21 42l35 -16l-10 -24l-9 -24l-5 -41q0 -57 32 -86q34 -28 78 -28l18 1l20 5q29 9 54 44q25 38 25 115v46h43v-490z" />
    <glyph glyph-name="z" unicode="z" horiz-adv-x="605" 
d="M277 331v-37l7 12l9 13q13 17 38 33t60 16q60 0 109 -52t49 -141q0 -73 -41 -132.5t-117 -59.5q-62 0 -109.5 51.5t-47.5 140.5v298l-12 -14l-21 -17q-17 -10 -48 -10q-56 0 -85 33q-27 33 -36 75l-3 23l-1 22l1 20l3 21q9 42 38 76.5t83 34.5t79 -26q26 -24 36 -56
l7 -40l2 -30v-199l150 175v-60zM405 23l16 5q28 9 55 45.5t27 101.5t-30.5 109t-81.5 44q-46 0 -78.5 -45.5t-32.5 -107.5q0 -63 24.5 -99.5t57.5 -48.5l15 -4l14 -1zM75 565q0 -11 4 -23q6 -28 23 -49t51 -21q36 0 59 33q19 36 19 80q0 51 -18 76t-43 34l-9 1l-8 1
q-33 0 -56 -29t-23 -83z" />
    <glyph glyph-name="braceleft" unicode="{" horiz-adv-x="440" 
 />
    <glyph glyph-name="bar" unicode="|" horiz-adv-x="569" 
 />
    <glyph glyph-name="braceright" unicode="}" horiz-adv-x="394" 
 />
    <glyph glyph-name="asciitilde" unicode="~" horiz-adv-x="406" 
d="M125 651q-15 -29 -15 -56l1 -14l2 -13l5 1h6h4l5 -1q13 -2 24 -10.5t11 -26.5l-1 -7l-1 -7q-3 -13 -13 -23.5t-30 -10.5t-36.5 14t-16.5 57v20q3 12 5 25t12 36q15 44 72 101l16 -17q-30 -35 -50 -68zM286 651q-15 -29 -15 -56l1 -14l2 -13l6 1h5h5q16 0 27.5 -9.5
t11.5 -28.5l-1 -7l-1 -7q-3 -13 -13 -23.5t-30 -10.5t-36.5 14t-16.5 57v20q3 12 5 25t12 36q15 44 72 101l16 -17q-30 -35 -50 -68z" />
    <glyph glyph-name="nonbreakingspace" unicode="&#xa0;" horiz-adv-x="500" 
 />
    <glyph glyph-name="currency" unicode="&#xa4;" horiz-adv-x="442" 
 />
    <glyph glyph-name="yen" unicode="&#xa5;" horiz-adv-x="1148" 
 />
    <glyph glyph-name="brokenbar" unicode="&#xa6;" horiz-adv-x="567" 
 />
    <glyph glyph-name="section" unicode="&#xa7;" horiz-adv-x="406" 
 />
    <glyph glyph-name="dieresis" unicode="&#xa8;" horiz-adv-x="406" 
 />
    <glyph glyph-name="copyright" unicode="&#xa9;" horiz-adv-x="259" 
 />
    <glyph glyph-name="ordfeminine" unicode="&#xaa;" horiz-adv-x="230" 
 />
    <glyph glyph-name="guillemotleft" unicode="&#xab;" horiz-adv-x="245" 
 />
    <glyph glyph-name="logicalnot" unicode="&#xac;" horiz-adv-x="259" 
 />
    <glyph glyph-name="minus" unicode="&#xad;" horiz-adv-x="245" 
 />
    <glyph glyph-name="acute" unicode="&#xb4;" horiz-adv-x="718" 
 />
    <glyph glyph-name="mu" unicode="&#xb5;" horiz-adv-x="475" 
 />
    <glyph glyph-name="paragraph" unicode="&#xb6;" horiz-adv-x="473" 
 />
    <glyph glyph-name="cedilla" unicode="&#xb8;" horiz-adv-x="677" 
 />
    <glyph glyph-name="onesuperior" unicode="&#xb9;" horiz-adv-x="436" 
 />
    <glyph glyph-name="ordmasculine" unicode="&#xba;" horiz-adv-x="462" 
 />
    <glyph glyph-name="guillemotright" unicode="&#xbb;" horiz-adv-x="690" 
 />
    <glyph glyph-name="onequarter" unicode="&#xbc;" horiz-adv-x="568" 
 />
    <glyph glyph-name="onehalf" unicode="&#xbd;" horiz-adv-x="690" 
 />
    <glyph glyph-name="threequarters" unicode="&#xbe;" horiz-adv-x="860" 
 />
    <glyph glyph-name="questiondown" unicode="&#xbf;" horiz-adv-x="693" 
 />
    <glyph glyph-name="Agrave" unicode="&#xc0;" horiz-adv-x="448" 
 />
    <glyph glyph-name="Aacute" unicode="&#xc1;" horiz-adv-x="735" 
 />
    <glyph glyph-name="Acircumflex" unicode="&#xc2;" horiz-adv-x="550" 
 />
    <glyph glyph-name="Atilde" unicode="&#xc3;" horiz-adv-x="605" 
 />
    <glyph glyph-name="Adieresis" unicode="&#xc4;" horiz-adv-x="689" 
 />
    <glyph glyph-name="Aring" unicode="&#xc5;" horiz-adv-x="415" 
 />
    <glyph glyph-name="AE" unicode="&#xc6;" horiz-adv-x="718" 
 />
    <glyph glyph-name="Ccedilla" unicode="&#xc7;" horiz-adv-x="448" 
 />
    <glyph glyph-name="Egrave" unicode="&#xc8;" horiz-adv-x="475" 
 />
    <glyph glyph-name="Eacute" unicode="&#xc9;" horiz-adv-x="440" 
 />
    <glyph glyph-name="Ecircumflex" unicode="&#xca;" horiz-adv-x="626" 
 />
    <glyph glyph-name="Edieresis" unicode="&#xcb;" horiz-adv-x="435" 
 />
    <glyph glyph-name="Igrave" unicode="&#xcc;" horiz-adv-x="467" 
 />
    <glyph glyph-name="Iacute" unicode="&#xcd;" horiz-adv-x="507" 
 />
    <glyph glyph-name="Ocircumflex" unicode="&#xd4;" horiz-adv-x="718" 
d="M366 298l7 8q18 23 52 42.5t81 19.5l10 -1h10q47 -6 90.5 -45.5t43.5 -111.5q0 -61 -28.5 -100t-73.5 -64q53 -15 78 -49.5t34 -77.5l2 -17l1 -18l-1 -18q0 -14 -2 -19q-9 -57 -54.5 -105.5t-162.5 -48.5q-100 0 -162 39.5t-62 100.5q0 15 2 21l6 22q3 13 10 24l18 20
l30 -22l-12 -19l-7 -24l-1 -5v-5q0 -47 47.5 -79.5t133.5 -32.5q90 0 127 41t43 94l1 7v8q0 66 -34 100q-33 30 -75 39l-14 1l-14 1h-5h-5v26q64 11 99 56.5t35 103.5q0 47 -29.5 82.5t-80.5 35.5q-48 0 -79.5 -24.5t-42.5 -56.5l7 -34l3 -37q0 -72 -39.5 -132.5
t-128.5 -60.5q-80 0 -124 60.5t-44 131.5q0 72 42.5 132.5t125.5 60.5q51 0 83.5 -22.5t53.5 -54.5zM310 64q36 42 36 111v6v7q0 25 -9 49.5t-26 46.5q-30 44 -87 44q-52 0 -87 -45t-35 -108q0 -67 27 -100.5t64 -47.5l16 -4l15 -1q47 0 86 42z" />
    <glyph glyph-name="Otilde" unicode="&#xd5;" horiz-adv-x="475" 
d="M365 315q54 -53 54 -136q0 -64 -31 -112.5t-77 -83.5l-17 16q53 56 66 106t13 70q0 61 -35 107t-100 46q-63 0 -99.5 -45.5t-36.5 -107.5q0 -18 1 -27t8.5 -34.5t26.5 -58.5l19 -28l24 -27l-17 -18q-42 34 -75 83.5t-33 113.5q0 81 54 135t127 54q74 0 128 -53z" />
    <glyph glyph-name="Odieresis" unicode="&#xd6;" horiz-adv-x="473" 
d="M113 696v-512l1 -33l1 -17l9 -32q8 -24 35 -52t86 -28q56 0 91 36.5t35 81.5v16l-4 12l-9 28l-7 15l-7 17l-11 27l-8 28q0 9 -2 12v12q0 23 10 40q9 19 22 30l28 -17l-8 -17l-5 -19l-1 -7v-6l1 -14l4 -14l9 -22l11 -23l6 -12l5 -13l6 -19l4 -19l1 -10l1 -9v-12
q0 -7 -2 -15l-6 -27q-12 -45 -52 -82t-111 -37q-77 0 -114 35.5t-51 81.5l-9 46l-2 40v14v512h43v-16z" />
    <glyph glyph-name="multiply" unicode="&#xd7;" horiz-adv-x="407" 
d="M66 172l-1 26v12l1 12q0 24 9 48.5t28 51.5q34 46 113 46q74 0 111.5 -41t37.5 -103v-4v-4q0 -52 -20 -95q-18 -44 -65 -57v-4q51 -15 75 -63.5t24 -105.5q0 -81 -27.5 -121t-65.5 -60q-20 -9 -50 -14l-35 -3q-93 0 -133 53.5t-40 116.5q0 36 15 68.5t44 55.5l24 -24
q-17 -16 -26 -38l-9 -30l-1 -23l-1 -8v-8q0 -54 36 -88.5t99 -34.5q54 0 78.5 24.5t36.5 58.5q5 20 7 39l2 30q0 76 -29 110t-66 44l-20 4l-19 1h-5h-5v33h7l3 -1h4q44 0 80 33t36 113q0 46 -26 76t-73 30q-53 0 -80 -31q-20 -25 -29 -66l-3 -20v-18l1 -25q0 -14 2 -19h-42z
" />
    <glyph glyph-name="Oslash" unicode="&#xd8;" horiz-adv-x="677" 
d="M86 276q0 -40 11 -68q9 -28 46 -28q21 0 32 11t15 24l4 15q0 10 2 13q8 58 29.5 91.5t75.5 33.5l17 -1q10 0 20 -5q10 -3 23 -13q9 -5 20 -22l14 14l16 11q9 4 14.5 6t21.5 7l24 3q59 0 87 -27t40 -61q5 -20 7 -39l2 -32v-290q0 -82 -38.5 -154t-208.5 -72
q-124 0 -179.5 45.5t-64.5 99.5l-1 10v8l3 36q3 20 13 41l15 28l24 27l23 -22l-8 -9l-6 -12q-12 -21 -15 -43l-3 -37v-7l1 -8q6 -41 51.5 -79t146.5 -38q115 0 159.5 42.5t44.5 139.5v289l-1 23l-3 29q-3 25 -24 49q-18 23 -62 23q-40 0 -55 -24q-12 -22 -17 -57l-1 -11v-10
v-86h-44v86q0 43 -9.5 72.5t-45.5 29.5q-29 0 -41 -21q-8 -18 -16 -49l-2 -4v-4l-3 -15l-3 -15q-6 -28 -26 -54t-64 -26q-48 0 -72 24q-21 24 -28 53l-5 31v27v74h43z" />
    <glyph glyph-name="Ugrave" unicode="&#xd9;" horiz-adv-x="436" 
d="M216 335q11 -12 29 -22l2 -2l3 -1l16 -9l16 -8q36 -21 67 -55t31 -96t-41.5 -110.5t-116.5 -48.5q-62 0 -114 36t-52 115q0 23 6 45t19 42l34 -9l-6 -23l-5 -25l-2 -14v-14q0 -53 35.5 -83.5t84.5 -30.5q54 0 78 28.5t32 64.5l1 12l1 12q0 42 -20 66q-18 25 -46 43l-17 9
l-16 8l-11 4l-10 6q-15 8 -32 25q-14 16 -14 48l1 13q0 11 2 15h35q0 -27 10 -41z" />
    <glyph glyph-name="Uacute" unicode="&#xda;" horiz-adv-x="462" 
d="M165 712q0 -16 6.5 -29.5t20.5 -26.5l24 -20l35 -20l20 -10l22 -14q25 -15 45.5 -42.5t20.5 -69.5q0 -36 -16.5 -60t-39.5 -39l-21 -11l-17 -6v-5q65 -6 103 -55.5t38 -123.5q0 -96 -55 -146.5t-131 -50.5q-75 0 -112 38t-49 85l-3 14v15v18l5 19q1 10 12 28l8 13l11 14
l26 -19l-7 -17l-5 -17l-3 -18l-1 -16v-6v-5q0 -20 7.5 -36.5t25.5 -37.5q29 -33 87 -33q68 0 103 47t35 111l-3 30q0 15 -12 45t-43 53q-31 25 -86 25h-9h-9l-10 -1h-9v44q54 0 94 28t40 75q0 32 -18.5 52t-39.5 33l-12 7l-12 7l-20 11l-23 16q-20 15 -37 38t-17 53v8l1 8
h30z" />
    <glyph glyph-name="Ucircumflex" unicode="&#xdb;" horiz-adv-x="690" 
d="M161 0l-16 16l-35 41l-30 46q-24 45 -24 101q0 53 24 91q21 32 51 65l2 3l3 3l16 17l20 24l26 34l19 25q31 45 64 112q27 57 38 134h56q-12 -74 -53 -155.5t-137 -186.5l2 -5l15 2l15 1h6q19 0 33 -5q17 -3 35 -14q31 -15 53 -52q17 27 42 43t56 25q12 0 17 2l17 1
q63 0 110.5 -45t47.5 -119q0 -54 -25 -100.5t-64 -87.5l-17 -16l-17 -17l-18 16q62 67 78.5 121.5t16.5 86.5q0 48 -24 76.5t-56 39.5l-16 4l-15 1q-70 0 -92 -58q-19 -63 -19 -128v-5v-5h-43v5v5q0 70 -18.5 128t-92.5 58q-11 0 -16 -2l-16 -3q-31 -9 -54.5 -36.5
t-23.5 -79.5q0 -31 15 -83t79 -124l-17 -18z" />
    <glyph glyph-name="Udieresis" unicode="&#xdc;" horiz-adv-x="568" 
d="M58 494l-12 12l-9 14q-12 20 -18 39l-5 34v8l1 10q0 17 1.5 23.5t6.5 19.5q9 21 25 43q30 39 88 39q42 0 71 -20q27 -16 44 -52q15 31 48 52q16 10 34 15t40 5q51 0 80 -27q23 -24 35 -59l4 -21l4 -21l1 -32v-401q0 -89 -45.5 -140.5t-111.5 -51.5q-62 0 -109.5 51.5
t-47.5 140.5t46.5 141t110.5 52q35 0 58.5 -15.5t39.5 -33.5l9 -13l7 -12v282q0 57 -21.5 88.5t-62.5 31.5q-60 0 -83 -48q-18 -48 -18 -114v-4v-4v-5v-4h-37v6l1 7v6v7v14l-1 15q0 24 -5 44l-6 24q-6 12 -8 17q-15 39 -69 39l-12 -1l-13 -3q-19 -6 -40 -30q-19 -25 -19 -71
q0 -31 12 -58q13 -25 35 -42l-21 -22zM418 64q33 42 33 111q0 64 -30.5 108.5t-80.5 44.5q-43 0 -73 -36q-23 -34 -34 -79l-3 -20l-1 -18q0 -69 33 -111t78 -42t78 42z" />
    <glyph glyph-name="Yacute" unicode="&#xdd;" horiz-adv-x="690" 
d="M161 0l-16 16l-35 41l-30 46q-24 45 -24 101q0 72 47 118t110 46l20 -1q9 0 20 -4l25 -8q13 -5 26 -14q22 -15 41 -44q15 29 41.5 45t56.5 23l17 2l16 1q63 0 110.5 -45t47.5 -119l-1 -15l-1 -15l-7 -30q-3 -19 -11 -30l62 -38l-25 -39l-59 37l-23 -32q-13 -15 -58 -59
l-18 16q35 35 59.5 82.5t33.5 99.5l1 13l1 13q0 48 -24 76.5t-56 39.5l-16 4l-15 1q-70 0 -92 -58q-19 -63 -19 -128v-5v-5h-43v5v5q0 70 -18.5 128t-92.5 58q-11 0 -16 -2l-16 -3q-31 -9 -54.5 -36.5t-23.5 -79.5q0 -31 15 -83t79 -124l-17 -18z" />
    <glyph glyph-name="Thorn" unicode="&#xde;" horiz-adv-x="860" 
d="M707 93l3 4l4 6q17 21 30.5 55t13.5 74q0 42 -18.5 63.5t-43.5 30.5l-10 1l-9 1q-63 0 -80.5 -59t-17.5 -130v-15l1 -15h-39v11l1 12v10v12q0 68 -20.5 121t-85.5 53q-57 0 -73 -47q-8 -25 -12 -48.5t-4 -52.5v-7v-6v-15l1 -15v-14v-14h-36l-1 25l-1 26q0 21 -1.5 30.5
t-6 26.5t-8 28t-11.5 30q-21 53 -85 53l-11 -1l-10 -2q-28 -8 -51.5 -40.5t-23.5 -95.5l1 -37l7 -35q8 -33 27 -80q32 -68 98 -130.5t178 -89.5l10 -2l10 -3l18 -4l18 -5l32 -10q29 -9 62 -25q51 -23 144 -75l-100 -1q-45 32 -114 58q-28 9 -62.5 17.5t-73.5 16.5l-74 10
l-71 3h-24l-23 -1l-9 47l17 2h16h23q14 0 19 -2l-47 51l-41 53q-33 47 -62 111q-11 28 -18 59q-3 16 -5 31.5t-2 30.5q0 87 42 138t103 51q15 0 21 -2l22 -5q25 -8 45 -25q21 -15 37 -41q15 31 41.5 47.5t60.5 24.5h11l10 1q37 0 66 -20q32 -18 48 -53q17 30 47.5 51.5
t68.5 21.5l15 -1l16 -3q34 -9 64.5 -39.5t30.5 -83.5v-9l-1 -9q0 -18 -12 -62q-9 -39 -54 -90z" />
    <glyph glyph-name="germandbls" unicode="&#xdf;" horiz-adv-x="693" 
d="M386 -234q-59 24 -122 33l-36 3l-34 1l-31 -1q-21 0 -28 -2v43l32 5l26 1h10l12 -1q-63 55 -111 140t-48 183q0 85 35.5 129.5t78.5 59.5l22 6l22 2l28 -3q12 0 16 -2l14 -6q19 -6 43 -24q16 -11 38 -39l3 4l3 6q14 22 44.5 43t75.5 21q75 0 116.5 -59.5t41.5 -133.5
q0 -72 -39.5 -132t-118.5 -60q-76 0 -116 60t-40 133l3 38l7 37q-14 26 -34 42q-16 15 -43 26l-23 7l-21 2l-8 -1h-7q-33 -6 -65 -44q-30 -38 -30 -113q0 -105 42 -170.5t97 -111.5q29 -24 72 -47l52 -25l81 -39q42 -20 94 -66l9 -8l10 -10l-76 -1q-34 45 -97 74zM493 23
q6 0 14 4q30 9 57 45t27 103q0 65 -30.5 109t-81.5 44q-46 0 -78.5 -45.5t-32.5 -107.5q0 -63 24.5 -99.5t57.5 -48.5l15 -4l14 -1z" />
    <glyph glyph-name="agrave" unicode="&#xe0;" horiz-adv-x="448" 
d="M378 389v-511l-2 -35q0 -13 -2 -17q0 -7 -7 -27q-12 -39 -48.5 -72.5t-114.5 -33.5q-69 0 -122.5 38.5t-53.5 116.5q0 42 15 80t55 65l24 -27q-23 -19 -36 -47q-12 -30 -12 -62v-7l1 -8q0 -39 33.5 -74t95.5 -35q61 0 87.5 26t35.5 58l6 33l2 28v349h-99l-12 -1l-14 -2
q-13 -3 -23.5 -13t-10.5 -31l1 -11l3 -11l8 -15l11 -13l-24 -20l-3 2l-3 3q-16 13 -27.5 29.5t-11.5 44.5v4v4q3 23 27 47q25 22 79 22h99v370l-136 -161l-28 21l173 216l34 -1v-322z" />
    <glyph glyph-name="aacute" unicode="&#xe1;" horiz-adv-x="735" 
d="M134 -208q-78 98 -78 234q0 124 68 225t200 120l-7 7l-7 9l-21 31q-9 18 -12 36l-1 5v6v6l1 6q3 21 25 40t65 19q42 0 63 -18t27 -41l1 -6v-6v-6l-1 -5l-3 -18l-9 -18l-21 -31l-8 -9l-6 -7q131 -18 200 -119.5t69 -225.5q0 -136 -78.5 -234.5t-233.5 -98.5
q-152 0 -233 99zM553 -195q80 71 80 222q0 107 -53.5 195.5t-166.5 117.5l-2 -3l8 -8l9 -10l10 -15l11 -22q9 -15 9 -37q0 -31 -23 -54q-21 -23 -68 -23t-69 24t-22 50q0 22 9 42q6 13 8.5 17t12.5 18l9 10l8 8l-1 3q-110 -24 -165 -116.5t-55 -196.5q0 -151 80.5 -222.5
t184.5 -71.5q54 0 99.5 17t86.5 55zM333 296q-15 -21 -15 -49q0 -17 8 -26l19 -13l12 -3l10 -1l10 1l12 3q9 3 18 12t9 27q0 25 -14 47.5t-35 40.5zM376 386l10 9l21 29q9 15 9 31q0 22 -12.5 31.5t-33.5 13.5h-6q-16 0 -31 -9.5t-15 -35.5l1 -16l1.5 -6t5.5 -9l22 -29l9 -9
l10 -10z" />
    <glyph glyph-name="acircumflex" unicode="&#xe2;" horiz-adv-x="550" 
d="M197 -290v18q0 75 -21 194q-5 30 -12 62.5t-20 80.5q-20 84 -51 197l-47 179q-18 72 -18 128l1 33q0 19 11 47q11 33 39.5 60t86.5 27q38 0 72.5 -17.5t48.5 -64.5q6 19 15.5 34.5t25.5 25.5q28 17 64 22h7q59 0 90.5 -40t31.5 -92v-22l-5 -20l-3 -14q-2 -7 -10 -18
q-10 -24 -30.5 -46.5t-55.5 -48.5l-20 20q31 28 54.5 64t23.5 85q0 44 -20 65q-15 18 -42 26l-8 1l-7 1l-16 -2q-8 -2 -16 -7q-19 -12 -38.5 -48t-19.5 -109v-55h-43v55l-1 28l-3 32q-6 38 -26.5 72t-70.5 34q-33 0 -61.5 -28t-28.5 -102q0 -14 2 -30t8 -47l24 -111l3 -14
l3 -12l1 -6l2 -6h325l-5 -26l-4 -26q-12 -69 -30 -139q-9 -38 -18 -69t-23 -69q-24 -76 -45 -133.5t-47 -116.5l-16 -35l-6 -17l-8 -17l-44 -1zM208 -30l19 -97q6 -35 6 -69v-12l1 -12l7 -1l34 99l43 129l29 101l28 107l9 43l9 44h-266z" />
    <glyph glyph-name="atilde" unicode="&#xe3;" horiz-adv-x="605" 
d="M277 331v-37l7 12l9 13q13 17 38 33t60 16q60 0 109 -52t49 -141q0 -73 -41 -132.5t-117 -59.5q-62 0 -109.5 51.5t-47.5 140.5v298l-12 -14l-21 -17q-17 -10 -48 -10q-56 0 -85 33q-27 33 -36 75l-3 23l-1 22l1 20l3 21q9 42 38 76.5t83 34.5t79 -26q26 -24 36 -56
l7 -40l2 -30v-199l150 175v-60zM405 23l16 5q28 9 55 45.5t27 101.5t-30.5 109t-81.5 44q-46 0 -78.5 -45.5t-32.5 -107.5q0 -63 24.5 -99.5t57.5 -48.5l15 -4l14 -1zM75 565q0 -11 4 -23q6 -28 23 -49t51 -21q36 0 59 33q19 36 19 80q0 51 -18 76t-43 34l-9 1l-8 1
q-33 0 -56 -29t-23 -83z" />
    <glyph glyph-name="adieresis" unicode="&#xe4;" horiz-adv-x="689" 
d="M373 -228l-71 22q-17 4 -31 6t-34 2q-15 0 -21 2h-22l-30 -1q-21 0 -29 -2v42l31 6l26 1h13l11 -1q-56 47 -93.5 107.5t-55.5 124.5l-8 46l-3 45q0 90 47 143t111 53h9l10 -1q12 0 21 -2t22 -8l25 -14q31 -18 46 -60l10 16l15 18q13 13 46 35q16 8 32 12t38 4l10 -1h12
q46 -6 84.5 -40t38.5 -102q0 -30 -5 -54t-8.5 -34.5t-12.5 -29.5q-24 -57 -75 -96l-18 20q16 16 35 46q12 22 22 50q1 3 5 17.5t6 26.5l4 42q0 49 -23 75q-18 24 -48 35l-15 4l-14 1q-72 0 -94 -62q-10 -30 -17 -64.5t-7 -71.5l-1 -27v-26h-43l-1 21v17v9v11v5l-1 34l-3 38
q-6 42 -28 79t-79 37l-8 -1h-7q-32 -6 -63.5 -45t-31.5 -111q0 -105 42 -172t98 -111q34 -26 70 -46l53 -25l50 -24l42 -22l29 -17l26 -18q24 -18 48 -42l-76 -1q-43 52 -111 79z" />
    <glyph glyph-name="aring" unicode="&#xe5;" horiz-adv-x="415" 
d="M344 361l2 -14l1 -22l1 -24q0 -34 -2 -54.5t-9 -40.5q-11 -36 -25 -57l-16 -18l-12 -11v-6q56 -9 72.5 -62.5t16.5 -122.5q0 -87 -27 -161.5t-152 -74.5q-69 0 -117.5 39.5t-48.5 119.5l3 42q3 20 11 34q12 25 45 59l24 -24q-12 -12 -22 -32l-12 -41l-3 -17v-17
q0 -59 38 -91t88 -32q74 0 100 45.5t26 91.5l1 24v24v5v6v5v4l-1 29v20l-4 14q-6 30 -26.5 57t-64.5 27q-21 0 -35 -7l-23 -13l-2 -2l-15 35l5 2q79 30 108.5 72.5t29.5 124.5l-2 23l-3 27l-3 14q0 11 -2 15h53q0 -11 2 -15z" />
    <glyph glyph-name="ae" unicode="&#xe6;" horiz-adv-x="718" 
d="M556 52q23 26 37 53q12 27 18 54l5 48q0 55 -32 87q-31 34 -80 34q-47 0 -78 -24t-43 -57l7 -34l2 -36q0 -76 -40 -135t-128 -59q-80 0 -124 60.5t-44 131.5q0 73 42 133t126 60l36 -4q25 -3 50 -20l26 -21q12 -12 25 -32l11 13l14 16q18 18 48 33t72 15q63 0 109.5 -46
t46.5 -119q0 -76 -39.5 -128t-109.5 -92l-15 23q36 21 58 46zM240 23l16 4q33 9 62 46.5t29 101.5l-1 18l-3 20q-8 43 -37 79t-82 36q-50 0 -82 -36q-27 -36 -36 -79l-3 -20l-1 -18q0 -67 27 -100.5t64 -47.5l16 -4l15 -1z" />
    <glyph glyph-name="ccedilla" unicode="&#xe7;" horiz-adv-x="448" 
d="M72 172l-6 39v10l1 12q6 51 42 93t115 42q101 0 127.5 -61t26.5 -128v-6v-5v-290l-2 -35q0 -13 -2 -17q0 -7 -7 -27q-12 -39 -48.5 -72.5t-114.5 -33.5q-69 0 -122.5 38.5t-53.5 116.5q0 42 15 80t55 65l24 -27q-23 -19 -36 -47q-12 -30 -12 -62v-7l1 -8q0 -39 33.5 -74
t95.5 -35q61 0 87.5 26t35.5 58l6 33l2 28v290q0 100 -29.5 130t-78.5 30q-54 0 -78 -21t-33 -52l-3 -19l-1 -17q0 -18 2 -24l6 -25l9 -26l11 -23l-40 -17q-21 38 -28 68z" />
    <glyph glyph-name="egrave" unicode="&#xe8;" horiz-adv-x="475" 
d="M53 178l-8 24l-3 31q0 56 33 90t75 43l13 1l12 1l23 -3q11 0 32 -12q19 -9 39.5 -39t20.5 -87l-1 -17l-1 -21v-4q0 -11 -2 -16v-13q0 -15 -2 -18l-1 -8v-4q0 -12 9 -29l21 -24l10 -10l9 -8l15 -14l14 -13q32 -30 51.5 -66.5t19.5 -86.5q0 -77 -48.5 -129.5t-141.5 -52.5
q-98 0 -148.5 58t-50.5 128q0 59 27 97q24 28 61 59l8 6l10 7l13 9l13 10q25 21 50 52q19 32 19 81q0 63 -15.5 89.5t-34.5 33.5l-15 4l-14 1q-41 0 -61 -28.5t-20 -63.5v-8l1 -8q0 -14 2 -18l6 -15l13 -28l-27 -18zM190 34q-27 -20 -47 -38q-23 -24 -40 -52
q-14 -28 -14 -66q0 -65 45 -105t106 -40q59 0 102.5 35.5t43.5 104.5v28q-3 11 -5 21.5t-15 29.5q-18 30 -48 57l-8 7l-6 7l-4 3l-3 4l-18 18l-30 32z" />
    <glyph glyph-name="eacute" unicode="&#xe9;" horiz-adv-x="440" 
d="M71 550l-3 33q0 70 46 113q49 40 108 40q65 0 95 -29q30 -27 42 -63l6 -20q3 -9 3 -23l2 -33v-393q0 -89 -45.5 -140.5t-111.5 -51.5q-75 0 -116 61t-41 131q0 91 47 141q24 26 52 39t58 13q35 0 58.5 -15.5t39.5 -33.5l9 -13l7 -12v266l-1 22q0 18 -2 24
q-6 33 -27.5 61.5t-74.5 28.5q-51 0 -80.5 -34t-29.5 -78v-27l3 -23l2 -7l2 -6l-34 -17l-8 22zM227 23l15 4q30 9 56 46.5t26 101.5t-30.5 108.5t-80.5 44.5q-47 0 -79 -45t-32 -108t24.5 -99.5t57.5 -48.5l15 -4l14 -1z" />
    <glyph glyph-name="ecircumflex" unicode="&#xea;" horiz-adv-x="626" 
d="M139 237q-29 -62 -43 -134l-6 -44l-2 -44l4 -49q0 -24 11 -54q5 -14 16 -38q23 -52 74 -96.5t146 -44.5q83 0 141 44.5t58 133.5q0 64 -26 93q-23 29 -57 46l-22 8l-21 4v31l16 1l18 3q33 8 58 29t25 64q0 29 -14 44t-35 28l-3 2l-50 33q-6 5 -11.5 10t-14.5 17l-10 22
l-2 22h35l12 -24q8 -9 21 -18l14 -9l18 -9l16 -8l19 -11q18 -12 34.5 -34.5t16.5 -54.5l-3 -28q-3 -13 -10.5 -29t-28.5 -38q-14 -13 -46 -28q33 -12 53 -35l15 -19l15 -27q9 -18 12 -44l2 -36q0 -108 -73 -165.5t-171 -57.5q-127 0 -212.5 85t-85.5 236q0 126 46.5 211.5
t102.5 135.5l9 7l9 8l21 -21q-57 -51 -91 -118z" />
    <glyph glyph-name="edieresis" unicode="&#xeb;" horiz-adv-x="435" 
d="M70 89v512q0 57 30 98q31 37 84 37q50 0 79.5 -29t29.5 -73q0 -62 -43 -115t-137 -96v-110l19 19l20 14q23 14 44 18l33 4l30 -3q14 0 39.5 -12t53 -46t27.5 -100l-3 -38l-6 -39l-9 -34l-13 -35q-12 -33 -31 -61h-46q38 57 50 114t12 92v6q0 42 -25 79q-23 37 -83 37
l-29 -4q-15 -3 -41 -21l-22 -21l-20 -29v-253h-43v89zM135 470l24 15q33 24 60.5 60.5t27.5 88.5q0 24 -10.5 37.5t-26.5 20.5l-13 3l-11 1l-14 -1q-8 0 -16 -5q-14 -5 -28.5 -26t-14.5 -60v-145z" />
    <glyph glyph-name="igrave" unicode="&#xec;" horiz-adv-x="467" 
d="M430 662q-22 -15 -44 -21l-22 -3l-20 -1l-31 1h-11l-19 2h-9l-9 1l-18 1l-18 1h-6h-4q-27 0 -52.5 -22t-25.5 -103v-224l7 12l9 13q13 17 38 33t60 16q60 0 108.5 -51.5t48.5 -141.5q0 -72 -39.5 -132t-117.5 -60q-62 0 -109.5 51.5t-47.5 140.5v380l2 25l10 32
q12 27 42 49t84 22l27 -1q21 0 27 -2q9 0 12 -2h14l13 -1h13q27 0 42 6t23 14l6 8l4 7h42q-6 -33 -29 -50zM269 23l15 4q30 9 56 46.5t26 101.5q0 65 -30.5 109t-80.5 44q-46 0 -78.5 -45.5t-32.5 -107.5q0 -63 24.5 -99.5t57.5 -48.5l15 -4l14 -1z" />
    <glyph glyph-name="iacute" unicode="&#xed;" horiz-adv-x="507" 
d="M450 190v-57l-95 85l-3 -3l10 -48l9 -34l3 -12l4 -10l4 -14l5 -15l7 -23l10 -28l14 -56l9 -63v-8v-8q0 -98 -55.5 -150.5t-146.5 -52.5t-144 47.5t-53 117.5q0 48 20 85.5t46 62.5l23 -21l-5 -5l-5 -8l-10 -16l-13 -27q-10 -30 -10 -57q0 -52 39 -96t113 -44q65 0 110 42
t45 121q0 16 -4 35l-8 41l-5 20l-4 17l-3 8l-2 8l-3 9l-3 9l-18 60l-22 87l-14 -11l-14 -8l-28 -12l-25 -3q-45 0 -68 20q-21 22 -30 47l-3 11v11l1 14q0 7 4 15q6 21 27 39t61 18h12l21 -4q18 -3 36 -12l10 -5l11 -6l4 35l6 29l3 18l5 21l8 50l3 39q0 44 -22.5 67.5
t-52.5 36.5l-21 7l-19 7l-22 7l-15 6l-3 1l-11 5l-12 5l5 -55l2 -53v-14l-1 -13l-1 -14v-14h-33v11q0 46 -4 73v15q-3 12 -4 18l-9 39q-5 22 -13 40l-7 19q-3 12 -10 23h63q9 -20 23 -31q14 -9 36 -18l13 -5l17 -5l26 -9l12 -4q7 0 18 -7q33 -15 62 -46.5t29 -88.5v-11
l-2 -19l-3 -27l-4 -21l-4 -22l-14 -75l-6 -46l98 88v-60l-64 -56zM304 257l-3 2l-2 3q-5 4 -9 6q-9 5 -23 12q-20 11 -45 11q-19 0 -36 -11.5t-17 -33.5q0 -21 14 -35q12 -10 33 -16l4 -1h5l15 2l16 5l25 13l21 16l2 3v24z" />
    <glyph glyph-name="quoteleft" unicode="&#x2018;" horiz-adv-x="406" 
 />
    <glyph glyph-name="quoteright" unicode="&#x2019;" horiz-adv-x="327" 
 />
    <glyph glyph-name="quotesinglbase" unicode="&#x201a;" horiz-adv-x="440" 
d="M113 386l150 175v-60l-150 -170v-37l7 12l9 13q13 17 38 33t60 16q60 0 108.5 -51.5t48.5 -141.5q0 -72 -39.5 -132t-117.5 -60q-62 0 -109.5 51.5t-47.5 140.5v25v512h43v-326zM241 23l15 4q30 9 56 46.5t26 101.5q0 65 -30.5 109t-80.5 44q-46 0 -78.5 -45.5
t-32.5 -107.5q0 -63 24.5 -99.5t57.5 -48.5l15 -4l14 -1z" />
    <glyph glyph-name="periodcentered" unicode="&#x2219;" horiz-adv-x="407" 
 />
  </font>
</defs>
</svg>
